<?xml version="1.0" standalone="no"?>
<!DOCTYPE svg PUBLIC "-//W3C//DTD SVG 1.1//EN" "http://www.w3.org/Graphics/SVG/1.1/DTD/svg11.dtd" >
<svg>
<metadata>
Created by FontForge 20110222 at Sat Nov 22 18:09:59 2014
 By deploy user
Copyright (C) 2000-2005, House Industries/Brand Design Co. Inc. All rights reserved.
</metadata>
<defs>
<font id="Chalet-NewYorkNineteenSixty" horiz-adv-x="667" >
  <font-face 
    font-family="Chalet-NewYorkNineteenSixty"
    font-weight="700"
    font-stretch="normal"
    units-per-em="1000"
    panose-1="0 0 0 0 0 0 0 0 0 0"
    ascent="800"
    descent="-200"
    x-height="515"
    cap-height="694"
    bbox="-46 -252 1171 977"
    underline-thickness="50"
    underline-position="-50"
    unicode-range="U+0020-FB02"
  />
<missing-glyph horiz-adv-x="500" 
 />
    <glyph glyph-name="ffl" unicode="ffl" horiz-adv-x="845" 
d="M783 744v-744h-132v744h132zM202 388v-388h-132v388h-62v126h62q2 104 63 165.5t167 49.5v-118q-97 6 -98 -97h152q2 104 63 165.5t167 49.5v-118q-97 6 -98 -97h93v-126h-93v-388h-132v388h-152z" />
    <glyph glyph-name="ffi" unicode="ffi" horiz-adv-x="832" 
d="M768 694v-123h-132v123h132zM584 729v-118q-97 6 -98 -97h282v-514h-132v388h-150v-388h-132v388h-152v-388h-132v388h-62v126h62q2 104 63 165.5t167 49.5v-118q-97 6 -98 -97h152q2 104 63 165.5t167 49.5z" />
    <glyph glyph-name="ff" unicode="ff" horiz-adv-x="598" 
d="M202 388v-388h-132v388h-62v126h62q2 104 63 165.5t167 49.5v-118q-97 6 -98 -97h152q2 104 63 165.5t167 49.5v-118q-97 6 -98 -97h93v-126h-93v-388h-132v388h-152z" />
    <glyph glyph-name="fi" unicode="fi" horiz-adv-x="548" 
d="M484 694v-123h-132v123h132zM352 388h-150v-388h-132v388h-62v126h62q2 104 63 165.5t167 49.5v-118q-97 6 -98 -97h282v-514h-132v388z" />
    <glyph glyph-name="fl" unicode="fl" horiz-adv-x="561" 
d="M499 744v-744h-132v744h132zM202 514h93v-126h-93v-388h-132v388h-62v126h62q2 104 63 165.5t167 49.5v-118q-97 6 -98 -97z" />
    <glyph glyph-name=".notdef" horiz-adv-x="500" 
 />
    <glyph glyph-name=".notdef" horiz-adv-x="500" 
 />
    <glyph glyph-name=".null" horiz-adv-x="0" 
 />
    <glyph glyph-name="nonmarkingreturn" horiz-adv-x="333" 
 />
    <glyph glyph-name="space" unicode=" " horiz-adv-x="308" 
 />
    <glyph glyph-name="exclam" unicode="!" horiz-adv-x="287" 
d="M210 694v-487h-132v487h132zM210 131v-131h-132v131h132z" />
    <glyph glyph-name="quotedbl" unicode="&#x22;" horiz-adv-x="373" 
d="M212 694h128l-22 -287h-85zM33 694h129l-23 -287h-84z" />
    <glyph glyph-name="numbersign" unicode="#" horiz-adv-x="538" 
d="M430 432l-25 -172h85l-14 -96h-86l-18 -127h-99l19 127h-99l-18 -127h-99l19 127h-86l14 96h85l25 172h-85l14 95h86l18 130h99l-18 -130h98l18 130h100l-19 -130h85l-14 -95h-85zM331 432h-98l-25 -172h97z" />
    <glyph glyph-name="dollar" unicode="$" horiz-adv-x="493" 
d="M275 46v-58h-65v59q-79 10 -130.5 62.5t-51.5 138.5h114q0 -72 68 -92v152q-173 39 -173 165q0 72 46.5 119.5t126.5 55.5v58h65v-58q79 -10 125 -61t46 -129h-115q0 63 -56 80v-134q42 -10 71 -21t57 -30.5t42.5 -50t14.5 -72.5q0 -77 -49 -126t-136 -58zM210 420v119
q-58 -13 -58 -63q0 -19 13.5 -32t44.5 -24zM346 222q0 27 -14 43t-57 29v-140q71 13 71 68z" />
    <glyph glyph-name="percent" unicode="%" horiz-adv-x="798" 
d="M197 694q74 0 124.5 -51t50.5 -124t-50.5 -123.5t-124.5 -50.5t-124.5 51t-50.5 123q0 73 50.5 124t124.5 51zM155 0l381 694h107l-381 -694h-107zM601 0q-74 0 -124.5 51t-50.5 124t50.5 124t124.5 51t124.5 -51t50.5 -124t-50.5 -124t-124.5 -51zM197 439
q31 0 53.5 23.5t22.5 56.5t-22.5 56.5t-53.5 23.5t-53 -23.5t-22 -56.5t22 -56.5t53 -23.5zM601 255q-31 0 -53.5 -23.5t-22.5 -56.5t22.5 -56.5t53.5 -23.5t53.5 23.5t22.5 56.5t-22.5 56.5t-53.5 23.5z" />
    <glyph glyph-name="ampersand" unicode="&#x26;" horiz-adv-x="660" 
d="M494 0l-30 37q-72 -49 -179 -49q-106 0 -179 63t-73 157q0 122 135 201l-6 7q-48 60 -48 128q0 72 49 120t124 48q73 0 120.5 -47.5t47.5 -119.5q0 -97 -113 -163l125 -156q15 48 12 124h118q6 -136 -48 -227l98 -123h-153zM235 548q0 -33 31 -71l7 -8q63 37 63 84
q0 22 -14 35.5t-36 13.5t-36.5 -15t-14.5 -39zM389 131l-152 191q-80 -47 -80 -114q0 -43 37 -73t91 -30q61 0 104 26z" />
    <glyph glyph-name="quotesingle" unicode="'" horiz-adv-x="195" 
d="M33 694h128l-22 -287h-85z" />
    <glyph glyph-name="parenleft" unicode="(" horiz-adv-x="325" 
d="M212 790h105q-152 -199 -152 -453t152 -453h-105q-77 79 -124.5 202t-47.5 251t47.5 251t124.5 202z" />
    <glyph glyph-name="parenright" unicode=")" horiz-adv-x="325" 
d="M113 790q77 -79 124.5 -202t47.5 -251t-47.5 -251t-124.5 -202h-104q151 198 151 453t-151 453h104z" />
    <glyph glyph-name="asterisk" unicode="*" horiz-adv-x="391" 
d="M364 507l-106 2l55 -90l-67 -39l-51 93l-51 -93l-66 39l54 90l-105 -2v77l105 -3l-55 92l67 38l51 -94l51 94l67 -38l-55 -92l106 3v-77z" />
    <glyph glyph-name="plus" unicode="+" horiz-adv-x="524" 
d="M487 215h-159v-164h-132v164h-159v123h159v163h132v-163h159v-123z" />
    <glyph glyph-name="comma" unicode="," horiz-adv-x="234" 
d="M188 141v-158q0 -65 -35 -103t-94 -44v62q62 14 62 84v18h-75v141h142z" />
    <glyph glyph-name="hyphen" unicode="-" horiz-adv-x="331" 
d="M30 216v123h271v-123h-271z" />
    <glyph glyph-name="hyphen" unicode="&#xad;" horiz-adv-x="331" 
d="M30 216v123h271v-123h-271z" />
    <glyph glyph-name="period" unicode="." horiz-adv-x="234" 
d="M188 141v-141h-142v141h142z" />
    <glyph glyph-name="slash" unicode="/" horiz-adv-x="337" 
d="M2 0l211 744h137l-211 -744h-137z" />
    <glyph glyph-name="zero" unicode="0" horiz-adv-x="585" 
d="M293 695q49 0 93 -19.5t81.5 -59t60 -110.5t22.5 -165t-22.5 -165t-60 -110.5t-81.5 -59t-93 -19.5t-93.5 19.5t-82 59t-60 110.5t-22.5 165t22.5 165t60 110.5t82 59t93.5 19.5zM293 109q40 0 67 25.5t38.5 66t16 73.5t4.5 67t-4.5 67t-16 74t-38.5 66.5t-67 25.5
t-67.5 -25.5t-39 -66.5t-16 -74t-4.5 -67t4.5 -67t16 -73.5t39 -66t67.5 -25.5z" />
    <glyph glyph-name="one" unicode="1" horiz-adv-x="420" 
d="M284 694v-694h-132v484h-108v86q51 1 90 32.5t44 91.5h106z" />
    <glyph glyph-name="two" unicode="2" horiz-adv-x="563" 
d="M180 123h334v-123h-481v59q0 56 16.5 102t49 80t65 57.5t78.5 48.5q89 48 115.5 77.5t26.5 64.5q0 37 -24.5 61.5t-74.5 24.5q-51 0 -80.5 -35t-29.5 -89h-133q0 102 64 174t178 72q112 0 172 -62.5t60 -146.5q0 -47 -14 -83t-47.5 -66.5t-62 -48.5t-84.5 -49
q-123 -67 -128 -118z" />
    <glyph glyph-name="three" unicode="3" horiz-adv-x="558" 
d="M526 207q0 -88 -67 -153.5t-184 -65.5q-119 0 -184 65.5t-67 168.5h132q1 -53 32 -82.5t86 -29.5t87.5 27.5t32.5 71.5q0 88 -113 88h-44v115h27q110 0 110 80q0 38 -25 60.5t-70 22.5q-50 0 -76.5 -30t-26.5 -72h-132q0 95 63.5 159.5t171.5 64.5q109 0 166.5 -56.5
t57.5 -134.5q0 -46 -22.5 -83t-65.5 -58q57 -17 84 -60.5t27 -97.5z" />
    <glyph glyph-name="four" unicode="4" horiz-adv-x="554" 
d="M524 141h-74v-141h-123v141h-303v117l272 436h154v-436h74v-117zM327 258v275l-172 -275h172z" />
    <glyph glyph-name="five" unicode="5" horiz-adv-x="550" 
d="M518 223q0 -101 -70.5 -168t-176.5 -67q-104 0 -171 57.5t-73 147.5h133q7 -38 37 -59t74 -21q47 0 81 29t34 85q0 52 -30.5 85t-79.5 33q-69 0 -108 -60l-119 32l41 377h385v-123h-283l-17 -145q52 33 110 33q100 0 166.5 -67t66.5 -169z" />
    <glyph glyph-name="six" unicode="6" horiz-adv-x="563" 
d="M536 223q0 -102 -68.5 -168.5t-174.5 -66.5q-49 0 -93.5 17.5t-82 54t-60 102t-22.5 151.5q0 183 70.5 286.5t194.5 103.5q91 0 151.5 -53t74.5 -144h-133q-7 32 -30.5 53.5t-62.5 21.5q-56 0 -89.5 -47t-41.5 -125q55 44 131 44q102 0 169 -64.5t67 -165.5zM405 220
q0 49 -31.5 82.5t-80.5 33.5t-80.5 -33.5t-31.5 -82.5q0 -48 31.5 -81.5t80.5 -33.5t80.5 33.5t31.5 81.5z" />
    <glyph glyph-name="seven" unicode="7" horiz-adv-x="516" 
d="M499 694v-116q-118 -96 -180.5 -244.5t-62.5 -333.5h-132q0 180 54 329.5t157 241.5h-318v123h482z" />
    <glyph glyph-name="eight" unicode="8" horiz-adv-x="557" 
d="M526 200q0 -91 -71 -151.5t-177 -60.5q-105 0 -176 60.5t-71 151.5q0 54 27 99.5t74 73.5q-72 56 -72 143q0 80 62 133.5t156 53.5t156.5 -53.5t62.5 -133.5q0 -88 -72 -142q48 -28 74.5 -73t26.5 -101zM185 508q0 -38 28 -60.5t65 -22.5q38 0 66 22.5t28 60.5
q0 39 -28 60t-66 21q-37 0 -65 -21t-28 -60zM398 206q0 50 -35 76t-85 26q-49 0 -84 -26t-35 -76t35.5 -76.5t83.5 -26.5t84 26.5t36 76.5z" />
    <glyph glyph-name="nine" unicode="9" horiz-adv-x="561" 
d="M267 -12q-86 0 -146 46.5t-78 123.5h142q18 -49 83 -49q121 0 129 179q-21 -25 -58.5 -40.5t-78.5 -15.5q-98 0 -165.5 65.5t-67.5 167.5q0 104 68.5 171t174.5 67q108 0 181 -79t75 -246q2 -189 -62.5 -289.5t-196.5 -100.5zM382 465q0 51 -31.5 86.5t-80.5 35.5
t-80.5 -35.5t-31.5 -86.5t31.5 -85.5t80.5 -34.5t80.5 34.5t31.5 85.5z" />
    <glyph glyph-name="colon" unicode=":" horiz-adv-x="245" 
d="M194 497v-141h-142v141h142zM194 141v-141h-142v141h142z" />
    <glyph glyph-name="semicolon" unicode=";" horiz-adv-x="245" 
d="M194 497v-141h-142v141h142zM126 0h-74v141h142v-158q0 -65 -35 -103t-94 -44v62q61 13 61 84v18z" />
    <glyph glyph-name="semicolon" unicode="&#x37e;" horiz-adv-x="245" 
d="M194 497v-141h-142v141h142zM126 0h-74v141h142v-158q0 -65 -35 -103t-94 -44v62q61 13 61 84v18z" />
    <glyph glyph-name="less" unicode="&#x3c;" horiz-adv-x="449" 
d="M418 384l-257 -108l257 -109v-135l-387 178v131l387 179v-136z" />
    <glyph glyph-name="equal" unicode="=" horiz-adv-x="505" 
d="M468 450v-123h-431v123h431zM468 225v-122h-431v122h431z" />
    <glyph glyph-name="greater" unicode="&#x3e;" horiz-adv-x="450" 
d="M419 341v-131l-388 -178v135l257 109l-257 108v136z" />
    <glyph glyph-name="question" unicode="?" horiz-adv-x="552" 
d="M164 484h-131q0 101 65 163.5t175 62.5q108 0 170.5 -56.5t62.5 -146.5q0 -57 -30 -97t-87 -78q-35 -23 -49.5 -46.5t-14.5 -55.5v-23h-121v23q0 37 9 67t27 53t33 36t40 31q34 24 48 44t14 46q0 37 -27.5 59.5t-74.5 22.5q-52 0 -80.5 -29.5t-28.5 -75.5zM330 131v-131
h-132v131h132z" />
    <glyph glyph-name="at" unicode="@" horiz-adv-x="745" 
d="M594 153h119q-105 -166 -315 -166q-155 0 -261 103t-106 258q0 153 103.5 257.5t252.5 104.5q85 0 157.5 -31.5t121 -101.5t48.5 -166q0 -99 -56.5 -169t-137.5 -70q-69 0 -101 54q-44 -56 -103 -56q-64 0 -95 56.5t-7 139.5q19 67 69.5 113t103.5 46q51 0 73 -42l8 26
h90l-60 -194q-8 -25 0.5 -38.5t25.5 -13.5q37 0 64 44t27 101q0 53 -20 95t-53 67t-72.5 37.5t-82.5 12.5q-106 0 -181.5 -79.5t-75.5 -192.5q0 -116 76.5 -193t191.5 -77q123 0 196 75zM416 349q11 35 3.5 59.5t-30.5 24.5q-22 0 -45.5 -24t-35.5 -60q-11 -35 -3 -59.5
t30 -24.5t46 24.5t35 59.5z" />
    <glyph glyph-name="A" unicode="A" 
d="M470 139h-277l-47 -139h-140l242 694h167l242 -694h-140zM428 262l-97 285l-97 -285h194z" />
    <glyph glyph-name="B" unicode="B" horiz-adv-x="651" 
d="M620 204q0 -93 -59 -148.5t-159 -55.5h-338v694h320q102 0 155.5 -49.5t53.5 -138.5q0 -87 -68 -136q95 -50 95 -166zM384 574h-188v-153h188q34 0 57.5 21.5t23.5 55.5q0 35 -22 55.5t-59 20.5zM485 209q0 44 -27 67.5t-77 23.5h-185v-179h188q44 0 72.5 20.5t28.5 67.5
z" />
    <glyph glyph-name="C" unicode="C" horiz-adv-x="708" 
d="M684 220q-33 -107 -117 -169.5t-198 -62.5q-142 0 -239 105t-97 257t97 257t239 105q117 0 200 -62t116 -169h-143q-24 49 -69.5 79.5t-103.5 30.5q-85 0 -144.5 -71t-59.5 -170q0 -100 59.5 -171t144.5 -71q57 0 103 31t70 81h142z" />
    <glyph glyph-name="D" unicode="D" 
d="M634 347q0 -159 -85 -253t-228 -94h-257v694h257q145 0 229 -93.5t84 -253.5zM502 348q0 43 -8 79t-26.5 70t-56 54t-90.5 20h-125v-448h125q55 0 93.5 22.5t56 59.5t24.5 71t7 72z" />
    <glyph glyph-name="E" unicode="E" horiz-adv-x="608" 
d="M578 123v-123h-514v694h507v-123h-375v-148h320v-123h-320v-177h382z" />
    <glyph glyph-name="F" unicode="F" horiz-adv-x="586" 
d="M196 571v-165h313v-123h-313v-283h-132v694h496v-123h-364z" />
    <glyph glyph-name="G" unicode="G" horiz-adv-x="748" 
d="M698 386v-386h-122v75q-73 -87 -206 -87q-142 0 -239.5 104.5t-97.5 256.5t97.5 257t239.5 105q115 0 199 -61.5t116 -169.5h-142q-21 48 -68 79.5t-105 31.5q-86 0 -145.5 -71t-59.5 -171q0 -99 61.5 -170t149.5 -71q72 0 127 44t74 111h-188v123h309z" />
    <glyph glyph-name="H" unicode="H" horiz-adv-x="690" 
d="M625 694v-694h-132v293h-296v-293h-133v694h133v-278h296v278h132z" />
    <glyph glyph-name="I" unicode="I" horiz-adv-x="265" 
d="M199 694v-694h-132v694h132z" />
    <glyph glyph-name="J" unicode="J" horiz-adv-x="528" 
d="M243 -13q-102 0 -164 64.5t-62 162.5v48h132v-52q0 -39 24 -66.5t70 -27.5t70.5 27.5t24.5 66.5v484h132v-480q0 -98 -62.5 -162.5t-164.5 -64.5z" />
    <glyph glyph-name="K" unicode="K" horiz-adv-x="648" 
d="M265 308l-68 -71v-237h-133v694h133v-280l261 280h182l-282 -290l294 -404h-172z" />
    <glyph glyph-name="L" unicode="L" horiz-adv-x="559" 
d="M197 694v-571h345v-123h-478v694h133z" />
    <glyph glyph-name="M" unicode="M" horiz-adv-x="811" 
d="M747 694v-694h-130v509l-141 -509h-141l-141 509v-509h-130v694h196l145 -520l145 520h197z" />
    <glyph glyph-name="N" unicode="N" horiz-adv-x="702" 
d="M638 694v-694h-159l-283 494v-494h-132v694h159l282 -494v494h133z" />
    <glyph glyph-name="O" unicode="O" horiz-adv-x="745" 
d="M373 711q146 0 242.5 -104.5t96.5 -256.5q0 -153 -96.5 -257.5t-242.5 -104.5t-243 104.5t-97 257.5q0 152 97 256.5t243 104.5zM373 113q85 0 145.5 69.5t60.5 167.5q0 97 -60.5 166.5t-145.5 69.5q-86 0 -146.5 -69.5t-60.5 -166.5q0 -98 60.5 -167.5t146.5 -69.5z" />
    <glyph glyph-name="P" unicode="P" horiz-adv-x="610" 
d="M585 470q0 -98 -62 -160t-164 -62h-163v-248h-132v694h292q108 0 168.5 -60.5t60.5 -163.5zM355 571h-159v-202h159q98 0 98 101t-98 101z" />
    <glyph glyph-name="Q" unicode="Q" horiz-adv-x="744" 
d="M563 -12l-35 37q-71 -37 -155 -37q-146 0 -243 104.5t-97 257.5q0 152 97 256.5t243 104.5t242 -104.5t96 -256.5q0 -154 -96 -258l98 -104h-150zM435 124l-103 109h150l41 -44q56 67 56 161q0 97 -60.5 166.5t-145.5 69.5q-86 0 -147 -69.5t-61 -166.5q0 -98 61 -167.5
t147 -69.5q31 0 62 11z" />
    <glyph glyph-name="R" unicode="R" 
d="M598 84q0 -44 16 -84h-134q-14 33 -14 76v106q0 44 -22 65t-68 21h-180v-268h-132v694h317q110 0 174 -55t64 -152q0 -113 -97 -158q76 -42 76 -148v-97zM196 387h188q11 0 24 3t33 11t33 28.5t13 50.5q0 11 -0.5 19t-6.5 23t-16 24.5t-31.5 17t-51.5 7.5h-185v-184z" />
    <glyph glyph-name="S" unicode="S" horiz-adv-x="647" 
d="M321 712q128 0 197 -68.5t69 -159.5h-132q0 46 -36 75.5t-98 29.5q-56 0 -95.5 -21t-39.5 -59q0 -34 34 -51.5t119 -35.5q69 -14 113 -28.5t82.5 -38.5t56 -60.5t17.5 -88.5q0 -100 -77.5 -159t-209.5 -59q-53 0 -102 14.5t-90.5 43t-66.5 76.5t-25 108h132
q0 -57 46.5 -89t105.5 -32q64 0 109.5 23.5t45.5 69.5q0 34 -35.5 56t-128.5 40q-57 11 -95.5 23.5t-79.5 35.5t-62 61.5t-21 91.5q0 90 73 146t194 56z" />
    <glyph glyph-name="T" unicode="T" horiz-adv-x="536" 
d="M520 571h-186v-571h-132v571h-186v123h504v-123z" />
    <glyph glyph-name="U" unicode="U" horiz-adv-x="650" 
d="M593 694v-419q0 -135 -69.5 -211t-198.5 -76t-198 76t-69 211v419h132v-423q0 -155 135 -155t135 155v423h133z" />
    <glyph glyph-name="V" unicode="V" horiz-adv-x="604" 
d="M600 694l-227 -694h-142l-228 694h140l159 -535l158 535h140z" />
    <glyph glyph-name="W" unicode="W" horiz-adv-x="890" 
d="M888 694l-189 -694h-146l-107 523l-108 -523h-145l-190 694h140l119 -505l104 505h160l103 -505l120 505h139z" />
    <glyph glyph-name="X" unicode="X" horiz-adv-x="609" 
d="M452 0l-147 243l-146 -243h-157l224 355l-214 339h156l137 -227l137 227h157l-214 -339l223 -355h-156z" />
    <glyph glyph-name="Y" unicode="Y" horiz-adv-x="595" 
d="M364 266v-266h-133v266l-233 428h149l150 -297l151 297h149z" />
    <glyph glyph-name="Z" unicode="Z" horiz-adv-x="593" 
d="M567 123v-123h-542v118l372 453h-360v123h521v-117l-372 -454h381z" />
    <glyph glyph-name="bracketleft" unicode="[" horiz-adv-x="317" 
d="M182 711v-724h122v-108h-240v940h240v-108h-122z" />
    <glyph glyph-name="backslash" unicode="\" horiz-adv-x="338" 
d="M335 0h-137l-211 744h138z" />
    <glyph glyph-name="bracketright" unicode="]" horiz-adv-x="337" 
d="M273 819v-940h-250v108h127v724h-127v108h250z" />
    <glyph glyph-name="asciicircum" unicode="^" horiz-adv-x="554" 
d="M389 258l-112 305l-112 -305h-132l179 436h130l179 -436h-132z" />
    <glyph glyph-name="underscore" unicode="_" horiz-adv-x="806" 
d="M808 -70v-123h-810v123h810z" />
    <glyph glyph-name="grave" unicode="`" horiz-adv-x="417" 
d="M74 723h147l93 -141h-97z" />
    <glyph glyph-name="a" unicode="a" horiz-adv-x="582" 
d="M411 0q-8 18 -13 48q-55 -58 -158 -58q-88 0 -148.5 43.5t-60.5 123.5t56 113.5t155 42.5q75 7 111 19t36 41q0 21 -25.5 35t-68.5 14q-39 0 -72 -17t-41 -48h-132q10 75 76 123t166 48q59 0 103 -15t66.5 -35t36 -47t16.5 -44.5t3 -34.5v-268q0 -41 15 -84h-121z
M394 200v48q-36 -23 -125 -33q-53 -6 -79 -19t-26 -40q0 -22 24 -35.5t63 -13.5q64 0 103.5 23t39.5 70z" />
    <glyph glyph-name="b" unicode="b" horiz-adv-x="619" 
d="M589 257q0 -113 -71.5 -190.5t-173.5 -77.5q-94 0 -157 66v-55h-127v744h133v-278q62 60 151 60q102 0 173.5 -77.5t71.5 -191.5zM457 256q0 63 -38.5 105.5t-93.5 42.5t-93.5 -43.5t-38.5 -104.5q0 -60 38.5 -102.5t93.5 -42.5t93.5 42t38.5 103z" />
    <glyph glyph-name="c" unicode="c" horiz-adv-x="571" 
d="M545 174q-22 -87 -88.5 -136.5t-160.5 -49.5q-115 0 -190.5 78t-75.5 191t75.5 192t190.5 79q93 0 159.5 -49.5t88.5 -136.5h-141q-14 28 -43 46.5t-64 18.5q-55 0 -93.5 -44.5t-38.5 -106.5q0 -61 38.5 -104.5t93.5 -43.5q36 0 65.5 19t42.5 47h141z" />
    <glyph glyph-name="d" unicode="d" horiz-adv-x="622" 
d="M559 744v-744h-126v55q-64 -66 -158 -66q-101 0 -173 77.5t-72 190.5q0 114 72 191.5t173 77.5q89 0 152 -60v278h132zM427 256q0 61 -38.5 104.5t-93.5 43.5t-93.5 -42.5t-38.5 -105.5q0 -61 38.5 -103t93.5 -42t93.5 42.5t38.5 102.5z" />
    <glyph glyph-name="e" unicode="e" horiz-adv-x="585" 
d="M553 206h-389q13 -47 47.5 -74.5t81.5 -27.5q77 0 109 60h141q-23 -80 -89 -128t-160 -48q-109 0 -186.5 78.5t-77.5 190.5t77.5 191.5t186.5 79.5q120 0 196.5 -87.5t62.5 -234.5zM166 314h256q-12 45 -47 71.5t-82 26.5q-45 0 -79 -26.5t-48 -71.5z" />
    <glyph glyph-name="f" unicode="f" horiz-adv-x="314" 
d="M202 513h93v-117h-93v-396h-132v396h-62v117h62q2 105 63 166.5t167 49.5v-124q-98 8 -98 -92z" />
    <glyph glyph-name="g" unicode="g" horiz-adv-x="612" 
d="M559 515v-489q0 -128 -71.5 -203t-195.5 -75q-94 0 -164.5 49.5t-85.5 130.5h145q12 -28 43 -42.5t62 -14.5q68 0 101.5 40.5t33.5 112.5v25q-63 -60 -152 -60q-101 0 -173 77.5t-72 190.5q0 114 72 191.5t173 77.5q94 0 158 -66v55h126zM427 256q0 61 -38.5 104.5
t-93.5 43.5t-93.5 -42.5t-38.5 -105.5q0 -61 38.5 -103t93.5 -42t93.5 42.5t38.5 102.5z" />
    <glyph glyph-name="h" unicode="h" horiz-adv-x="577" 
d="M521 301v-301h-132v301q0 14 -3.5 28.5t-12 31.5t-29.5 27.5t-51 10.5q-44 0 -72 -27.5t-28 -70.5v-301h-133v744h133v-256q53 40 118 40q94 0 152 -62.5t58 -164.5z" />
    <glyph glyph-name="i" unicode="i" horiz-adv-x="258" 
d="M195 694v-123h-132v123h132zM195 515v-515h-132v515h132z" />
    <glyph glyph-name="j" unicode="j" horiz-adv-x="239" 
d="M187 694v-123h-133v123h133zM187 515v-578q0 -98 -55.5 -138t-156.5 -26v117q41 -4 60 10t19 52v563h133z" />
    <glyph glyph-name="k" unicode="k" horiz-adv-x="558" 
d="M258 217l-66 -69v-148h-132v744h132v-416l169 187h182l-192 -201l203 -314h-168z" />
    <glyph glyph-name="l" unicode="l" horiz-adv-x="257" 
d="M195 744v-744h-132v744h132z" />
    <glyph glyph-name="m" unicode="m" horiz-adv-x="905" 
d="M849 301v-301h-132v301q0 15 -3.5 29.5t-12 32.5t-29.5 29t-51 11q-44 0 -72 -29t-28 -73v-301h-133v301q0 15 -3 29.5t-12 32.5t-30 29t-51 11q-43 0 -71 -29t-28 -73v-301h-133v515h127v-50q52 63 133 63q97 0 154 -73q60 73 157 73q102 0 160 -62t58 -165z" />
    <glyph glyph-name="n" unicode="n" horiz-adv-x="577" 
d="M520 301v-301h-132v301q0 15 -3 29.5t-12 32.5t-30 29t-51 11q-44 0 -72 -29t-28 -73v-301h-132v515h126v-50q53 63 133 63q91 0 146 -62.5t55 -164.5z" />
    <glyph glyph-name="o" unicode="o" horiz-adv-x="579" 
d="M289 528q108 0 184 -78t76 -193q0 -114 -76 -191.5t-184 -77.5t-183.5 77t-75.5 192t75.5 193t183.5 78zM289 109q53 0 90 41.5t37 105.5q0 66 -37 108.5t-90 42.5t-90 -42.5t-37 -108.5q0 -64 37 -105.5t90 -41.5z" />
    <glyph glyph-name="p" unicode="p" horiz-adv-x="619" 
d="M589 259q0 -114 -71.5 -192t-173.5 -78q-88 0 -151 61v-279h-133v744h127v-54q64 66 157 66q102 0 173.5 -77.5t71.5 -190.5zM457 259q0 62 -38.5 103.5t-93.5 41.5t-93.5 -42.5t-38.5 -102.5q0 -61 38.5 -104t93.5 -43t93.5 42t38.5 105z" />
    <glyph glyph-name="q" unicode="q" horiz-adv-x="620" 
d="M559 515v-744h-132v279q-64 -61 -152 -61q-101 0 -173 78t-72 192q0 113 72 190.5t173 77.5q92 0 158 -66v54h126zM427 259q0 60 -38.5 102.5t-93.5 42.5t-93.5 -41.5t-38.5 -103.5q0 -63 38.5 -105t93.5 -42t93.5 43t38.5 104z" />
    <glyph glyph-name="r" unicode="r" horiz-adv-x="364" 
d="M352 525v-128q-88 10 -127 -32q-33 -34 -33 -112v-253h-132v515h126v-51q63 78 166 61z" />
    <glyph glyph-name="s" unicode="s" horiz-adv-x="526" 
d="M495 162q0 -76 -63.5 -125t-162.5 -49t-165.5 48.5t-78.5 131.5h134q12 -30 44 -45t66 -15q41 0 67 12t26 34t-21 33.5t-87 21.5q-34 5 -58.5 10t-56.5 17t-51.5 27t-34 41t-14.5 59q0 67 57.5 116t162.5 49q88 0 149 -44t74 -117h-137q-14 43 -86 43q-42 0 -64 -12.5
t-22 -28.5q0 -19 24 -28.5t78 -17.5q54 -9 89 -18.5t67.5 -27.5t48 -46t15.5 -69z" />
    <glyph glyph-name="t" unicode="t" horiz-adv-x="316" 
d="M301 121v-120q-110 -12 -170.5 47.5t-60.5 168.5v181h-62v117h62v131h132v-131h93v-117h-93v-182q0 -53 24.5 -75.5t74.5 -19.5z" />
    <glyph glyph-name="u" unicode="u" horiz-adv-x="576" 
d="M516 515v-515h-126v47q-51 -59 -131 -59q-91 0 -147 62.5t-56 163.5v301h132v-301q0 -14 3.5 -28.5t12 -32.5t29.5 -29t51 -11q44 0 72 29t28 72v301h132z" />
    <glyph glyph-name="v" unicode="v" horiz-adv-x="533" 
d="M532 515l-194 -515h-142l-195 515h138l128 -384l129 384h136z" />
    <glyph glyph-name="w" unicode="w" horiz-adv-x="784" 
d="M782 515l-161 -515h-136l-93 341l-93 -341h-137l-160 515h140l90 -360l94 360h132l94 -360l90 360h140z" />
    <glyph glyph-name="x" unicode="x" horiz-adv-x="513" 
d="M513 0h-149l-107 175l-108 -175h-149l180 266l-169 249h150l96 -157l95 157h150l-169 -249z" />
    <glyph glyph-name="y" unicode="y" horiz-adv-x="532" 
d="M531 515l-228 -609q-35 -93 -90.5 -122t-146.5 -23v120q50 -3 76.5 12t42.5 59l15 39l-199 524h140l126 -372l123 372h141z" />
    <glyph glyph-name="z" unicode="z" horiz-adv-x="493" 
d="M471 119v-119h-450v114l272 282h-261v119h430v-118l-267 -278h276z" />
    <glyph glyph-name="braceleft" unicode="{" horiz-adv-x="334" 
d="M312 798v-97q-39 3 -58 -19t-19 -61v-131q0 -110 -76 -145q76 -38 76 -146v-131q0 -39 19 -61t58 -19v-98q-93 -8 -144.5 35.5t-51.5 137.5v125q0 109 -97 109v95q97 0 97 110v125q0 94 51.5 137t144.5 34z" />
    <glyph glyph-name="bar" unicode="|" horiz-adv-x="268" 
d="M200 0h-132v744h132v-744z" />
    <glyph glyph-name="braceright" unicode="}" horiz-adv-x="334" 
d="M315 392v-95q-97 0 -97 -109v-125q0 -94 -51.5 -137.5t-143.5 -35.5v98q38 -3 57 19t19 61v131q0 108 76 146q-76 35 -76 145v131q0 39 -19 61t-57 19v97q92 9 143.5 -34.5t51.5 -136.5v-125q0 -110 97 -110z" />
    <glyph glyph-name="asciitilde" unicode="~" horiz-adv-x="431" 
d="M391 730q-7 -50 -33.5 -84.5t-70.5 -34.5q-32 0 -78 18.5t-63 18.5q-35 0 -45 -41h-61q8 50 35 84t74 34q32 0 77 -18.5t61 -18.5q32 0 43 42h61z" />
    <glyph glyph-name="nbspace" unicode="&#xa0;" horiz-adv-x="308" 
 />
    <glyph glyph-name="exclamdown" unicode="&#xa1;" horiz-adv-x="287" 
d="M78 564v131h132v-131h-132zM78 0v488h132v-488h-132z" />
    <glyph glyph-name="cent" unicode="&#xa2;" horiz-adv-x="535" 
d="M506 186q-20 -87 -82 -139t-150 -52q-22 0 -49 5l-33 -110h-68l40 131q-62 32 -98 95.5t-36 144.5q0 114 69 190t175 76q15 0 43 -4l33 108h68l-39 -127q97 -48 126 -163h-121q-12 30 -39 52l-87 -285q12 -2 18 -2q38 0 67 21.5t43 58.5h120zM199 136l85 279h-8
q-55 0 -90.5 -43.5t-35.5 -110.5q0 -81 49 -125z" />
    <glyph glyph-name="sterling" unicode="&#xa3;" horiz-adv-x="558" 
d="M549 47q-96 -92 -226 -35q-54 25 -101.5 20.5t-98.5 -42.5l-72 102q48 25 78 65.5t30 83.5q0 24 -5 39h-111v87h65q-40 61 -40 125q0 92 64.5 150t166.5 58q104 0 169.5 -61.5t65.5 -159.5h-124q0 47 -29.5 76.5t-81.5 29.5q-49 0 -78 -26t-29 -67q0 -18 5 -36
t10.5 -28.5t17 -31t16.5 -29.5h146v-87h-118q2 -20 1 -32q0 -77 -64 -129l1 -1q62 29 149 -2q48 -15 76 -8t56 35z" />
    <glyph glyph-name="yen" unicode="&#xa5;" horiz-adv-x="601" 
d="M475 465h80v-74h-120l-56 -102h161v-75h-173v-214h-133v214h-173v75h161l-56 102h-120v74h80l-125 229h149l150 -297l151 297h149z" />
    <glyph glyph-name="section" unicode="&#xa7;" horiz-adv-x="527" 
d="M431 238q30 -35 30 -90q0 -71 -53.5 -116.5t-148.5 -45.5q-92 0 -148 50t-56 128h115q0 -30 25.5 -51.5t65.5 -21.5q41 0 64 14t23 36q0 23 -21.5 35t-91.5 24q-99 17 -150.5 50t-51.5 99q0 77 70 120q-30 35 -30 91q2 67 55.5 110.5t140.5 43.5q86 0 137 -46.5
t50 -121.5h-116q1 30 -20.5 46t-51.5 16q-32 0 -55 -12.5t-24 -35.5q0 -21 18 -31t65 -19q110 -23 145 -40q77 -36 77 -117q0 -75 -63 -115zM267 303q9 -1 27.5 -5t27.5 -5q60 13 60 47q0 26 -29.5 38.5t-100.5 24.5q-29 5 -45 10q-59 -15 -59 -48q0 -25 29 -39t90 -23z" />
    <glyph glyph-name="dieresis" unicode="&#xa8;" horiz-adv-x="417" 
d="M357 602h-110v108h110v-108zM169 602h-110v108h110v-108z" />
    <glyph glyph-name="copyright" unicode="&#xa9;" horiz-adv-x="783" 
d="M392 711q149 0 255 -106t106 -255q0 -150 -106 -256t-255 -106q-150 0 -256 106t-106 256q0 149 106 255t256 106zM392 82q109 0 185.5 78.5t76.5 189.5t-76.5 189.5t-185.5 78.5t-186 -78.5t-77 -189.5t77 -189.5t186 -78.5zM567 295q-16 -61 -63.5 -99.5t-111.5 -38.5
q-78 0 -131.5 56t-53.5 137q0 80 53.5 136t131.5 56q65 0 112.5 -38t63.5 -100h-102q-23 46 -74 46q-36 0 -61.5 -29.5t-25.5 -70.5t25.5 -70.5t61.5 -29.5q50 0 73 45h102z" />
    <glyph glyph-name="ordfeminine" unicode="&#xaa;" horiz-adv-x="382" 
d="M259 395q-6 16 -7 29q-33 -35 -96 -35q-52 0 -88.5 26t-36.5 74t33.5 68.5t93.5 25.5q44 3 66 10.5t22 24.5q0 13 -15 21.5t-41 8.5q-23 0 -43 -10.5t-25 -28.5h-79q6 45 45.5 73.5t99.5 28.5q44 0 73.5 -12t41.5 -31.5t16 -33.5t4 -28v-161q0 -23 9 -50h-73zM249 515v28
q-21 -12 -75 -19q-63 -6 -63 -36q0 -13 14.5 -21t38.5 -8q85 0 85 56z" />
    <glyph glyph-name="guillemotleft" unicode="&#xab;" horiz-adv-x="423" 
d="M393 380l-100 -80l100 -82v-105l-158 137v99l158 136v-105zM23 349l158 136v-105l-100 -80l100 -82v-105l-158 137v99z" />
    <glyph glyph-name="registered" unicode="&#xae;" horiz-adv-x="783" 
d="M753 350q0 -150 -106 -256t-255 -106q-150 0 -256 106t-106 256q0 149 106 255t256 106q149 0 255 -106t106 -255zM654 350q0 110 -76.5 189t-185.5 79t-186 -79t-77 -189q0 -111 77 -189.5t186 -78.5t185.5 78.5t76.5 189.5zM499 303l69 -128h-110l-54 108h-50v-108h-98
v369h176q63 0 98 -36t35 -96q0 -76 -66 -109zM354 370h72q39 0 39 42t-39 42h-72v-84z" />
    <glyph glyph-name="macron" unicode="&#xaf;" horiz-adv-x="403" 
d="M40 595v87h323v-87h-323z" />
    <glyph glyph-name="degree" unicode="&#xb0;" horiz-adv-x="369" 
d="M184 692q64 0 109 -45t45 -108q0 -64 -45 -109t-109 -45t-108.5 45t-44.5 109q0 63 44.5 108t108.5 45zM184 461q32 0 54.5 23t22.5 55q0 31 -22.5 54t-54.5 23t-54.5 -23t-22.5 -54q0 -32 22.5 -55t54.5 -23z" />
    <glyph glyph-name="twosuperior" unicode="&#xb2;" horiz-adv-x="366" 
d="M39 543q0 63 40 108t110 45q69 0 106.5 -39t37.5 -91q0 -55 -30.5 -85.5t-98.5 -67.5q-76 -40 -80 -73h208v-76h-299v36q0 66 34.5 106t95.5 73q56 30 72 48t16 40q0 23 -15.5 38t-46.5 15t-49.5 -21.5t-18.5 -55.5h-82z" />
    <glyph glyph-name="threesuperior" unicode="&#xb3;" horiz-adv-x="368" 
d="M336 392q0 -54 -42 -95t-114 -41q-74 0 -114 41t-42 104h83q0 -32 19 -50.5t53 -18.5q35 0 55 17t20 44q0 55 -70 55h-27v71h16q69 0 69 49q0 24 -15.5 38t-43.5 14q-31 0 -47.5 -18.5t-16.5 -44.5h-82q0 59 39.5 99t106.5 40t103 -35.5t36 -82.5q0 -60 -55 -88
q69 -21 69 -98z" />
    <glyph glyph-name="acute" unicode="&#xb4;" horiz-adv-x="417" 
d="M334 723l-144 -141h-97l93 141h148z" />
    <glyph glyph-name="paragraph" unicode="&#xb6;" horiz-adv-x="611" 
d="M547 694v-694h-104v594h-75v-594h-104v248h-13q-102 0 -164 62t-62 160q0 103 60.5 163.5t168.5 60.5h293z" />
    <glyph glyph-name="periodcentered" unicode="&#xb7;" horiz-adv-x="224" 
d="M178 413v-131h-132v131h132z" />
    <glyph glyph-name="periodcentered" unicode="&#x22c5;" horiz-adv-x="224" 
d="M178 413v-131h-132v131h132z" />
    <glyph glyph-name="cedilla" unicode="&#xb8;" horiz-adv-x="308" 
d="M268 -131q0 -42 -33.5 -66t-80.5 -24q-64 0 -114 40l17 36q35 -19 66 -23t48 6t17 28q0 26 -27 33.5t-51 -5.5l-38 23l41 83h65l-41 -60q27 9 56 8t52 -22.5t23 -56.5z" />
    <glyph glyph-name="onesuperior" unicode="&#xb9;" horiz-adv-x="257" 
d="M183 694v-430h-82v300h-67v53q32 1 56 20.5t27 56.5h66z" />
    <glyph glyph-name="ordmasculine" unicode="&#xba;" horiz-adv-x="371" 
d="M186 711q65 0 110 -46.5t45 -115.5t-45 -115t-110 -46t-110.5 46.5t-45.5 114.5q0 69 45.5 115.5t110.5 46.5zM186 460q32 0 54 25t22 64t-22 64.5t-54 25.5t-54 -25.5t-22 -64.5t22 -64t54 -25z" />
    <glyph glyph-name="guillemotright" unicode="&#xbb;" horiz-adv-x="422" 
d="M399 349v-99l-158 -137v105l100 82l-100 80v105zM29 485l158 -136v-99l-158 -137v105l100 82l-100 80v105z" />
    <glyph glyph-name="onequarter" unicode="&#xbc;" horiz-adv-x="744" 
d="M101 264v300h-67v53q32 1 56 20.5t27 56.5h66v-430h-82zM594 694l-407 -706h-84l407 706h84zM714 88h-46v-88h-77v88h-187v72l169 270h95v-270h46v-72zM591 160v170l-106 -170h106z" />
    <glyph glyph-name="onehalf" unicode="&#xbd;" horiz-adv-x="796" 
d="M101 264v300h-67v53q32 1 55.5 20.5t27.5 56.5h65v-430h-81zM593 694l-407 -706h-84l408 706h83zM554 76h208v-76h-299v37q0 65 35 105.5t95 72.5q55 30 71.5 48.5t16.5 39.5q0 23 -15 38t-46 15q-32 0 -50.5 -21t-18.5 -55h-82q0 62 40 107t110 45q69 0 106.5 -39
t37.5 -91q0 -38 -19 -67.5t-41.5 -44.5t-68.5 -40q-76 -42 -80 -74z" />
    <glyph glyph-name="threequarters" unicode="&#xbe;" horiz-adv-x="848" 
d="M179 256q-74 0 -114 41t-41 104h82q0 -32 19.5 -50.5t53.5 -18.5t54 17t20 44q0 55 -70 55h-27v71h16q69 0 69 49q0 24 -15.5 38t-43.5 14q-31 0 -47.5 -18.5t-16.5 -44.5h-82q0 59 39.5 99t106.5 40t103 -35.5t36 -82.5q0 -60 -55 -88q69 -21 69 -98q0 -55 -41.5 -95.5
t-114.5 -40.5zM698 694l-407 -706h-84l407 706h84zM818 88h-46v-88h-76v88h-188v72l169 270h95v-270h46v-72zM696 160v170l-107 -170h107z" />
    <glyph glyph-name="questiondown" unicode="&#xbf;" horiz-adv-x="552" 
d="M221 567v131h133v-131h-133zM388 214h130q0 -102 -65 -164.5t-175 -62.5q-108 0 -170 56.5t-62 147.5q0 57 30 97.5t87 77.5q63 43 63 102v23h122v-23q0 -70 -29 -110.5t-81 -76.5q-34 -24 -47.5 -44t-13.5 -46q0 -37 27 -59.5t74 -22.5q52 0 81 29.5t29 75.5z" />
    <glyph glyph-name="Agrave" unicode="&#xc0;" 
d="M158 893h148l93 -141h-97zM470 139h-277l-47 -139h-140l242 694h167l242 -694h-140zM428 262l-97 285l-97 -285h194z" />
    <glyph glyph-name="Aacute" unicode="&#xc1;" 
d="M505 893l-144 -141h-97l93 141h148zM470 139h-277l-47 -139h-140l242 694h167l242 -694h-140zM428 262l-97 285l-97 -285h194z" />
    <glyph glyph-name="Acircumflex" unicode="&#xc2;" 
d="M270 752h-109l111 142h119l110 -142h-108l-62 83zM470 139h-277l-47 -139h-140l242 694h167l242 -694h-140zM428 262l-97 285l-97 -285h194z" />
    <glyph glyph-name="Atilde" unicode="&#xc3;" 
d="M507 882q-7 -50 -33.5 -84.5t-70.5 -34.5q-32 0 -78 18.5t-63 18.5q-35 0 -45 -41h-61q8 50 35 84t74 34q32 0 77 -18.5t61 -18.5q32 0 43 42h61zM470 139h-277l-47 -139h-140l242 694h167l242 -694h-140zM428 262l-97 285l-97 -285h194z" />
    <glyph glyph-name="Adieresis" unicode="&#xc4;" 
d="M364 874h123v-111h-123v111zM176 874h123v-111h-123v111zM470 139h-277l-47 -139h-140l242 694h167l242 -694h-140zM428 262l-97 285l-97 -285h194z" />
    <glyph glyph-name="Aring" unicode="&#xc5;" 
d="M331 956q44 0 75 -31t31 -75t-31 -75t-75 -31t-75 31t-31 75t31.5 75t74.5 31zM470 139h-277l-47 -139h-140l242 694h167l242 -694h-140zM331 801q20 0 34 14.5t14 34.5t-14 34.5t-34 14.5q-19 0 -33 -14.5t-14 -34.5t14 -34.5t33 -14.5zM428 262l-97 285l-97 -285h194z
" />
    <glyph glyph-name="AE" unicode="&#xc6;" horiz-adv-x="965" 
d="M935 123v-123h-515v139h-227l-48 -139h-139l245 694h677v-123h-375v-148h318v-123h-318v-177h382zM420 262v309h-80l-107 -309h187z" />
    <glyph glyph-name="Ccedilla" unicode="&#xc7;" horiz-adv-x="708" 
d="M542 220h142q-33 -105 -114 -167.5t-192 -64.5l-33 -47q27 9 56.5 8t52.5 -23t23 -57q0 -42 -33.5 -66t-81.5 -24q-63 0 -113 40l17 36q34 -19 65 -22.5t48.5 6t17.5 27.5q0 26 -27 33.5t-51 -5.5l-39 23l37 75q-123 20 -203.5 120.5t-80.5 237.5q0 152 97 257t239 105
q117 0 200 -62t116 -169h-143q-26 49 -70.5 78.5t-102.5 29.5q-85 0 -144.5 -70.5t-59.5 -168.5q0 -99 59.5 -169.5t144.5 -70.5q57 0 102 30t71 80z" />
    <glyph glyph-name="Egrave" unicode="&#xc8;" horiz-adv-x="608" 
d="M131 893h148l93 -141h-97zM578 123v-123h-514v694h507v-123h-375v-148h320v-123h-320v-177h382z" />
    <glyph glyph-name="Eacute" unicode="&#xc9;" horiz-adv-x="608" 
d="M505 893l-144 -141h-97l93 141h148zM578 123v-123h-514v694h507v-123h-375v-148h320v-123h-320v-177h382z" />
    <glyph glyph-name="Ecircumflex" unicode="&#xca;" horiz-adv-x="608" 
d="M270 752h-109l111 142h119l110 -142h-108l-62 83zM578 123v-123h-514v694h507v-123h-375v-148h320v-123h-320v-177h382z" />
    <glyph glyph-name="Edieresis" unicode="&#xcb;" horiz-adv-x="608" 
d="M364 874h123v-111h-123v111zM176 874h123v-111h-123v111zM578 123v-123h-514v694h507v-123h-375v-148h320v-123h-320v-177h382z" />
    <glyph glyph-name="Igrave" unicode="&#xcc;" horiz-adv-x="265" 
d="M-46 893h148l93 -141h-97zM199 694v-694h-132v694h132z" />
    <glyph glyph-name="Iacute" unicode="&#xcd;" horiz-adv-x="265" 
d="M316 893l-144 -141h-97l93 141h148zM199 694v-694h-132v694h132z" />
    <glyph glyph-name="Icircumflex" unicode="&#xce;" horiz-adv-x="265" 
d="M72 752h-109l111 142h119l110 -142h-108l-62 83zM199 694v-694h-132v694h132z" />
    <glyph glyph-name="Idieresis" unicode="&#xcf;" horiz-adv-x="265" 
d="M169 874h123v-111h-123v111zM-19 874h123v-111h-123v111zM199 694v-694h-132v694h132z" />
    <glyph glyph-name="Eth" unicode="&#xd0;" horiz-adv-x="691" 
d="M658 347q0 -159 -85 -253t-228 -94h-257v321h-73v123h73v250h257q145 0 229 -93.5t84 -253.5zM526 348q0 43 -8 79t-26.5 70t-56 54t-90.5 20h-124v-127h163v-123h-163v-198h124q55 0 93.5 22.5t56 59.5t24.5 71t7 72z" />
    <glyph glyph-name="Ntilde" unicode="&#xd1;" horiz-adv-x="702" 
d="M422 853q34 0 49 42h55q-6 -52 -35.5 -86t-70.5 -34q-29 0 -69 22.5t-59 22.5q-34 0 -49 -42h-54q5 53 34 86.5t71 33.5q29 0 69 -22.5t59 -22.5zM638 694v-694h-159l-283 494v-494h-132v694h159l282 -494v494h133z" />
    <glyph glyph-name="Ograve" unicode="&#xd2;" horiz-adv-x="745" 
d="M176 893h148l93 -141h-97zM373 711q146 0 242.5 -104.5t96.5 -256.5q0 -153 -96.5 -257.5t-242.5 -104.5t-243 104.5t-97 257.5q0 152 97 256.5t243 104.5zM373 113q85 0 145.5 69.5t60.5 167.5q0 97 -60.5 166.5t-145.5 69.5q-86 0 -146.5 -69.5t-60.5 -166.5
q0 -98 60.5 -167.5t146.5 -69.5z" />
    <glyph glyph-name="Oacute" unicode="&#xd3;" horiz-adv-x="745" 
d="M560 893l-144 -141h-97l93 141h148zM373 711q146 0 242.5 -104.5t96.5 -256.5q0 -153 -96.5 -257.5t-242.5 -104.5t-243 104.5t-97 257.5q0 152 97 256.5t243 104.5zM373 113q85 0 145.5 69.5t60.5 167.5q0 97 -60.5 166.5t-145.5 69.5q-86 0 -146.5 -69.5t-60.5 -166.5
q0 -98 60.5 -167.5t146.5 -69.5z" />
    <glyph glyph-name="Ocircumflex" unicode="&#xd4;" horiz-adv-x="745" 
d="M312 752h-109l111 142h119l110 -142h-108l-62 83zM373 711q146 0 242.5 -104.5t96.5 -256.5q0 -153 -96.5 -257.5t-242.5 -104.5t-243 104.5t-97 257.5q0 152 97 256.5t243 104.5zM373 113q85 0 145.5 69.5t60.5 167.5q0 97 -60.5 166.5t-145.5 69.5q-86 0 -146.5 -69.5
t-60.5 -166.5q0 -98 60.5 -167.5t146.5 -69.5z" />
    <glyph glyph-name="Otilde" unicode="&#xd5;" horiz-adv-x="745" 
d="M558 882q-7 -50 -33.5 -84.5t-70.5 -34.5q-32 0 -78 18.5t-63 18.5q-35 0 -45 -41h-61q8 50 35 84t74 34q32 0 77 -18.5t61 -18.5q32 0 43 42h61zM373 711q146 0 242.5 -104.5t96.5 -256.5q0 -153 -96.5 -257.5t-242.5 -104.5t-243 104.5t-97 257.5q0 152 97 256.5
t243 104.5zM373 113q85 0 145.5 69.5t60.5 167.5q0 97 -60.5 166.5t-145.5 69.5q-86 0 -146.5 -69.5t-60.5 -166.5q0 -98 60.5 -167.5t146.5 -69.5z" />
    <glyph glyph-name="Odieresis" unicode="&#xd6;" horiz-adv-x="745" 
d="M409 874h123v-111h-123v111zM221 874h123v-111h-123v111zM373 711q146 0 242.5 -104.5t96.5 -256.5q0 -153 -96.5 -257.5t-242.5 -104.5t-243 104.5t-97 257.5q0 152 97 256.5t243 104.5zM373 113q85 0 145.5 69.5t60.5 167.5q0 97 -60.5 166.5t-145.5 69.5
q-86 0 -146.5 -69.5t-60.5 -166.5q0 -98 60.5 -167.5t146.5 -69.5z" />
    <glyph glyph-name="multiply" unicode="&#xd7;" horiz-adv-x="514" 
d="M435 5l-178 178l-178 -178l-69 69l178 179l-178 177l69 69l178 -178l178 178l69 -69l-178 -177l178 -179z" />
    <glyph glyph-name="Oslash" unicode="&#xd8;" horiz-adv-x="745" 
d="M646 568q66 -96 66 -218q0 -153 -96.5 -257.5t-242.5 -104.5q-127 0 -219 81l-69 -71l-52 52l72 73q-72 98 -72 227q0 152 97 256.5t243 104.5q132 0 226 -88l69 70l52 -51zM200 219l306 310q-57 57 -133 57q-86 0 -146.5 -69.5t-60.5 -166.5q0 -72 34 -131zM550 470
l-303 -307q56 -50 126 -50q85 0 145.5 69.5t60.5 167.5q0 67 -29 120z" />
    <glyph glyph-name="Ugrave" unicode="&#xd9;" horiz-adv-x="650" 
d="M136 893h148l93 -141h-97zM593 694v-419q0 -135 -69.5 -211t-198.5 -76t-198 76t-69 211v419h132v-423q0 -155 135 -155t135 155v423h133z" />
    <glyph glyph-name="Uacute" unicode="&#xda;" horiz-adv-x="650" 
d="M521 893l-144 -141h-97l93 141h148zM593 694v-419q0 -135 -69.5 -211t-198.5 -76t-198 76t-69 211v419h132v-423q0 -155 135 -155t135 155v423h133z" />
    <glyph glyph-name="Ucircumflex" unicode="&#xdb;" horiz-adv-x="650" 
d="M266 752h-109l111 142h119l110 -142h-108l-62 83zM593 694v-419q0 -135 -69.5 -211t-198.5 -76t-198 76t-69 211v419h132v-423q0 -155 135 -155t135 155v423h133z" />
    <glyph glyph-name="Udieresis" unicode="&#xdc;" horiz-adv-x="650" 
d="M364 874h123v-111h-123v111zM176 874h123v-111h-123v111zM593 694v-419q0 -135 -69.5 -211t-198.5 -76t-198 76t-69 211v419h132v-423q0 -155 135 -155t135 155v423h133z" />
    <glyph glyph-name="Yacute" unicode="&#xdd;" horiz-adv-x="595" 
d="M490 893l-140 -145h-96l93 145h143zM363 266v-266h-132v266l-233 428h149l149 -294h3l149 294h149z" />
    <glyph glyph-name="Thorn" unicode="&#xde;" horiz-adv-x="610" 
d="M585 380q0 -98 -62.5 -160.5t-164.5 -62.5h-162v-157h-132v694h132v-90h160q108 0 168.5 -60.5t60.5 -163.5zM453 380q0 101 -98 101h-159v-202h159q98 0 98 101z" />
    <glyph glyph-name="germandbls" unicode="&#xdf;" horiz-adv-x="590" 
d="M560 215q0 -105 -61.5 -166.5t-163.5 -61.5q-51 0 -94 18v123q37 -15 86 -15q48 0 74.5 29t26.5 75q0 44 -29.5 70.5t-75.5 26.5h-82v123h58q35 0 60 23t25 68q0 42 -25 66.5t-69 24.5q-42 0 -69.5 -30t-27.5 -76v-513h-133v517q0 94 65 160.5t164 66.5
q100 0 163.5 -60.5t63.5 -145.5q0 -91 -66 -144q53 -24 81.5 -71t28.5 -108z" />
    <glyph glyph-name="agrave" unicode="&#xe0;" horiz-adv-x="582" 
d="M130 723h147l93 -141h-97zM411 0q-8 18 -13 48q-55 -58 -158 -58q-88 0 -148.5 43.5t-60.5 123.5t56 113.5t155 42.5q75 7 111 19t36 41q0 21 -25.5 35t-68.5 14q-39 0 -72 -17t-41 -48h-132q10 75 76 123t166 48q59 0 103 -15t66.5 -35t36 -47t16.5 -44.5t3 -34.5v-268
q0 -41 15 -84h-121zM394 200v48q-36 -23 -125 -33q-53 -6 -79 -19t-26 -40q0 -22 24 -35.5t63 -13.5q64 0 103.5 23t39.5 70z" />
    <glyph glyph-name="aacute" unicode="&#xe1;" horiz-adv-x="582" 
d="M458 723l-144 -141h-97l93 141h148zM411 0q-8 18 -13 48q-55 -58 -158 -58q-88 0 -148.5 43.5t-60.5 123.5t56 113.5t155 42.5q75 7 111 19t36 41q0 21 -25.5 35t-68.5 14q-39 0 -72 -17t-41 -48h-132q10 75 76 123t166 48q59 0 103 -15t66.5 -35t36 -47t16.5 -44.5
t3 -34.5v-268q0 -41 15 -84h-121zM394 200v48q-36 -23 -125 -33q-53 -6 -79 -19t-26 -40q0 -22 24 -35.5t63 -13.5q64 0 103.5 23t39.5 70z" />
    <glyph glyph-name="acircumflex" unicode="&#xe2;" horiz-adv-x="582" 
d="M354 582l-62 83l-61 -83h-109l111 142h118l111 -142h-108zM411 0q-8 18 -13 48q-55 -58 -158 -58q-88 0 -148.5 43.5t-60.5 123.5t56 113.5t155 42.5q75 7 111 19t36 41q0 21 -25.5 35t-68.5 14q-39 0 -72 -17t-41 -48h-132q10 75 76 123t166 48q59 0 103 -15t66.5 -35
t36 -47t16.5 -44.5t3 -34.5v-268q0 -41 15 -84h-121zM394 200v48q-36 -23 -125 -33q-53 -6 -79 -19t-26 -40q0 -22 24 -35.5t63 -13.5q64 0 103.5 23t39.5 70z" />
    <glyph glyph-name="atilde" unicode="&#xe3;" horiz-adv-x="582" 
d="M465 712q-7 -50 -34 -84.5t-71 -34.5q-31 0 -77 18.5t-63 18.5q-35 0 -45 -41h-62q8 50 35.5 84.5t74.5 34.5q32 0 76.5 -19t60.5 -19q32 0 43 42h62zM411 0q-8 18 -13 48q-55 -58 -158 -58q-88 0 -148.5 43.5t-60.5 123.5t56 113.5t155 42.5q75 7 111 19t36 41
q0 21 -25.5 35t-68.5 14q-39 0 -72 -17t-41 -48h-132q10 75 76 123t166 48q59 0 103 -15t66.5 -35t36 -47t16.5 -44.5t3 -34.5v-268q0 -41 15 -84h-121zM394 200v48q-36 -23 -125 -33q-53 -6 -79 -19t-26 -40q0 -22 24 -35.5t63 -13.5q64 0 103.5 23t39.5 70z" />
    <glyph glyph-name="adieresis" unicode="&#xe4;" horiz-adv-x="582" 
d="M323 703h122v-111h-122v111zM135 703h122v-111h-122v111zM411 0q-8 18 -13 48q-55 -58 -158 -58q-88 0 -148.5 43.5t-60.5 123.5t56 113.5t155 42.5q75 7 111 19t36 41q0 21 -25.5 35t-68.5 14q-39 0 -72 -17t-41 -48h-132q10 75 76 123t166 48q59 0 103 -15t66.5 -35
t36 -47t16.5 -44.5t3 -34.5v-268q0 -41 15 -84h-121zM394 200v48q-36 -23 -125 -33q-53 -6 -79 -19t-26 -40q0 -22 24 -35.5t63 -13.5q64 0 103.5 23t39.5 70z" />
    <glyph glyph-name="aring" unicode="&#xe5;" horiz-adv-x="582" 
d="M290 788q44 0 75 -31t31 -75t-31 -75t-75 -31t-75 31t-31 75t31 75t75 31zM411 0q-8 18 -13 48q-55 -58 -158 -58q-88 0 -148.5 43.5t-60.5 123.5t56 113.5t155 42.5q75 7 111 19t36 41q0 21 -25.5 35t-68.5 14q-39 0 -72 -17t-41 -48h-132q10 75 76 123t166 48
q59 0 103 -15t66.5 -35t36 -47t16.5 -44.5t3 -34.5v-268q0 -41 15 -84h-121zM394 200v48q-36 -23 -125 -33q-53 -6 -79 -19t-26 -40q0 -22 24 -35.5t63 -13.5q64 0 103.5 23t39.5 70zM290 633q20 0 34 14.5t14 34.5q0 21 -14 35.5t-34 14.5t-33.5 -14.5t-13.5 -35.5
q0 -20 14 -34.5t33 -14.5z" />
    <glyph glyph-name="ae" unicode="&#xe6;" horiz-adv-x="947" 
d="M914 206h-387q13 -46 48 -72t80 -26q72 0 110 56h140q-23 -80 -89 -128t-160 -48q-60 0 -112.5 25.5t-86.5 70.5q-56 -94 -206 -94q-88 0 -154 44t-66 123q0 29 9.5 53t21 40t35.5 28.5t39 19t46 12.5t43 7.5t42 4.5q6 1 19.5 2t20.5 2t19 2.5t18.5 3t15.5 3.5t14 5
t10.5 7t7.5 9t2 11q0 20 -27 33t-68 13q-37 0 -69.5 -13t-41.5 -43h-138q10 75 77 123t168 48q130 0 190 -67q72 67 171 67q120 0 197 -87t61 -235zM530 317h253q-14 42 -48.5 66.5t-79.5 24.5q-42 0 -76 -24.5t-49 -66.5zM401 204v36q-37 -22 -118 -29q-64 -5 -94 -18
t-30 -39q0 -20 25.5 -34t65.5 -14q67 0 109 24.5t42 73.5z" />
    <glyph glyph-name="ccedilla" unicode="&#xe7;" horiz-adv-x="571" 
d="M303 -13l-24 -39q37 14 75 -3.5t38 -62.5q0 -37 -25 -58.5t-67 -21.5q-54 0 -96 42l18 31q28 -27 71 -27q18 0 30 8.5t12 23.5q0 13 -11 23t-29 10q-21 0 -35 -13l-36 24l34 66q-100 13 -164 88.5t-64 177.5q0 114 75.5 193t190.5 79q93 0 159.5 -49.5t89.5 -136.5h-142
q-33 58 -107 58q-55 0 -93.5 -42.5t-38.5 -101.5q0 -58 38.5 -99.5t93.5 -41.5q75 0 108 59h141q-22 -86 -86 -135.5t-156 -51.5z" />
    <glyph glyph-name="egrave" unicode="&#xe8;" horiz-adv-x="585" 
d="M108 723h147l93 -141h-97zM553 206h-389q13 -47 47.5 -74.5t81.5 -27.5q77 0 109 60h141q-23 -80 -89 -128t-160 -48q-109 0 -186.5 78.5t-77.5 190.5t77.5 191.5t186.5 79.5q120 0 196.5 -87.5t62.5 -234.5zM166 314h256q-12 45 -47 71.5t-82 26.5q-45 0 -79 -26.5
t-48 -71.5z" />
    <glyph glyph-name="eacute" unicode="&#xe9;" horiz-adv-x="585" 
d="M490 723l-144 -141h-97l93 141h148zM553 206h-389q13 -47 47.5 -74.5t81.5 -27.5q77 0 109 60h141q-23 -80 -89 -128t-160 -48q-109 0 -186.5 78.5t-77.5 190.5t77.5 191.5t186.5 79.5q120 0 196.5 -87.5t62.5 -234.5zM166 314h256q-12 45 -47 71.5t-82 26.5
q-45 0 -79 -26.5t-48 -71.5z" />
    <glyph glyph-name="ecircumflex" unicode="&#xea;" horiz-adv-x="585" 
d="M355 582l-62 83l-61 -83h-109l111 142h118l111 -142h-108zM553 206h-389q13 -47 47.5 -74.5t81.5 -27.5q77 0 109 60h141q-23 -80 -89 -128t-160 -48q-109 0 -186.5 78.5t-77.5 190.5t77.5 191.5t186.5 79.5q120 0 196.5 -87.5t62.5 -234.5zM166 314h256q-12 45 -47 71.5
t-82 26.5q-45 0 -79 -26.5t-48 -71.5z" />
    <glyph glyph-name="edieresis" unicode="&#xeb;" horiz-adv-x="585" 
d="M326 703h122v-111h-122v111zM138 703h122v-111h-122v111zM553 206h-389q13 -47 47.5 -74.5t81.5 -27.5q77 0 109 60h141q-23 -80 -89 -128t-160 -48q-109 0 -186.5 78.5t-77.5 190.5t77.5 191.5t186.5 79.5q120 0 196.5 -87.5t62.5 -234.5zM166 314h256q-12 45 -47 71.5
t-82 26.5q-45 0 -79 -26.5t-48 -71.5z" />
    <glyph glyph-name="igrave" unicode="&#xec;" horiz-adv-x="259" 
d="M-46 723h147l93 -141h-97zM195 515v-515h-132v515h132z" />
    <glyph glyph-name="iacute" unicode="&#xed;" horiz-adv-x="259" 
d="M310 723l-144 -141h-97l93 141h148zM195 515v-515h-132v515h132z" />
    <glyph glyph-name="icircumflex" unicode="&#xee;" horiz-adv-x="259" 
d="M192 582l-62 83l-61 -83h-109l111 142h118l111 -142h-108zM195 515v-515h-132v515h132z" />
    <glyph glyph-name="idieresis" unicode="&#xef;" horiz-adv-x="259" 
d="M165 703h122v-111h-122v111zM-23 703h122v-111h-122v111zM195 515v-515h-132v515h132z" />
    <glyph glyph-name="eth" unicode="&#xf0;" horiz-adv-x="587" 
d="M546 257q0 -118 -74.5 -195t-181.5 -77t-182 76.5t-75 188.5q0 81 38.5 144t93 93t111.5 30q45 0 84 -17q-38 55 -92 96l-74 -54l-55 34l76 55q-38 21 -69 31l98 74q30 -14 65 -36l62 46l55 -34l-66 -49q90 -75 138 -182t48 -224zM416 250q0 64 -36.5 106t-89.5 42
t-89.5 -42t-36.5 -106q0 -63 36.5 -104.5t89.5 -41.5t89.5 41.5t36.5 104.5z" />
    <glyph glyph-name="ntilde" unicode="&#xf1;" horiz-adv-x="577" 
d="M473 712q-7 -50 -34 -84.5t-71 -34.5q-31 0 -77 18.5t-63 18.5q-35 0 -45 -41h-62q8 50 35.5 84.5t74.5 34.5q32 0 76.5 -19t60.5 -19q32 0 43 42h62zM520 301v-301h-132v301q0 15 -3 29.5t-12 32.5t-30 29t-51 11q-44 0 -72 -29t-28 -73v-301h-132v515h126v-50
q53 63 133 63q91 0 146 -62.5t55 -164.5z" />
    <glyph glyph-name="ograve" unicode="&#xf2;" horiz-adv-x="579" 
d="M101 723h147l93 -141h-97zM289 528q108 0 184 -78t76 -193q0 -114 -76 -191.5t-184 -77.5t-183.5 77t-75.5 192t75.5 193t183.5 78zM289 109q53 0 90 41.5t37 105.5q0 66 -37 108.5t-90 42.5t-90 -42.5t-37 -108.5q0 -64 37 -105.5t90 -41.5z" />
    <glyph glyph-name="oacute" unicode="&#xf3;" horiz-adv-x="579" 
d="M486 723l-144 -141h-97l93 141h148zM289 528q108 0 184 -78t76 -193q0 -114 -76 -191.5t-184 -77.5t-183.5 77t-75.5 192t75.5 193t183.5 78zM289 109q53 0 90 41.5t37 105.5q0 66 -37 108.5t-90 42.5t-90 -42.5t-37 -108.5q0 -64 37 -105.5t90 -41.5z" />
    <glyph glyph-name="ocircumflex" unicode="&#xf4;" horiz-adv-x="579" 
d="M355 582l-62 83l-61 -83h-109l111 142h118l111 -142h-108zM289 528q108 0 184 -78t76 -193q0 -114 -76 -191.5t-184 -77.5t-183.5 77t-75.5 192t75.5 193t183.5 78zM289 109q53 0 90 41.5t37 105.5q0 66 -37 108.5t-90 42.5t-90 -42.5t-37 -108.5q0 -64 37 -105.5
t90 -41.5z" />
    <glyph glyph-name="otilde" unicode="&#xf5;" horiz-adv-x="579" 
d="M465 712q-7 -50 -34 -84.5t-71 -34.5q-31 0 -77 18.5t-63 18.5q-35 0 -45 -41h-62q8 50 35.5 84.5t74.5 34.5q32 0 76.5 -19t60.5 -19q32 0 43 42h62zM289 528q108 0 184 -78t76 -193q0 -114 -76 -191.5t-184 -77.5t-183.5 77t-75.5 192t75.5 193t183.5 78zM289 109
q53 0 90 41.5t37 105.5q0 66 -37 108.5t-90 42.5t-90 -42.5t-37 -108.5q0 -64 37 -105.5t90 -41.5z" />
    <glyph glyph-name="odieresis" unicode="&#xf6;" horiz-adv-x="579" 
d="M323 703h122v-111h-122v111zM135 703h122v-111h-122v111zM289 528q108 0 184 -78t76 -193q0 -114 -76 -191.5t-184 -77.5t-183.5 77t-75.5 192t75.5 193t183.5 78zM289 109q53 0 90 41.5t37 105.5q0 66 -37 108.5t-90 42.5t-90 -42.5t-37 -108.5q0 -64 37 -105.5
t90 -41.5z" />
    <glyph glyph-name="oslash" unicode="&#xf8;" horiz-adv-x="579" 
d="M549 256q0 -111 -76 -190t-183 -79q-90 0 -161 58l-46 -46l-50 50l47 48q-50 73 -50 159q0 113 76 192.5t184 79.5q88 0 159 -58l46 46l51 -49l-48 -49q51 -72 51 -162zM174 192l185 187q-33 23 -69 23q-54 0 -92 -42.5t-38 -103.5q0 -34 14 -64zM419 256q0 37 -15 67
l-185 -187q33 -23 71 -23q53 0 91 42t38 101z" />
    <glyph glyph-name="ugrave" unicode="&#xf9;" horiz-adv-x="576" 
d="M104 723h147l93 -141h-97zM516 515v-515h-126v47q-51 -59 -131 -59q-91 0 -147 62.5t-56 163.5v301h132v-301q0 -14 3.5 -28.5t12 -32.5t29.5 -29t51 -11q44 0 72 29t28 72v301h132z" />
    <glyph glyph-name="uacute" unicode="&#xfa;" horiz-adv-x="576" 
d="M486 723l-144 -141h-97l93 141h148zM516 515v-515h-126v47q-51 -59 -131 -59q-91 0 -147 62.5t-56 163.5v301h132v-301q0 -14 3.5 -28.5t12 -32.5t29.5 -29t51 -11q44 0 72 29t28 72v301h132z" />
    <glyph glyph-name="ucircumflex" unicode="&#xfb;" horiz-adv-x="576" 
d="M348 582l-62 83l-61 -83h-109l111 142h118l111 -142h-108zM516 515v-515h-126v47q-51 -59 -131 -59q-91 0 -147 62.5t-56 163.5v301h132v-301q0 -14 3.5 -28.5t12 -32.5t29.5 -29t51 -11q44 0 72 29t28 72v301h132z" />
    <glyph glyph-name="udieresis" unicode="&#xfc;" horiz-adv-x="576" 
d="M322 703h122v-111h-122v111zM134 703h122v-111h-122v111zM516 515v-515h-126v47q-51 -59 -131 -59q-91 0 -147 62.5t-56 163.5v301h132v-301q0 -14 3.5 -28.5t12 -32.5t29.5 -29t51 -11q44 0 72 29t28 72v301h132z" />
    <glyph glyph-name="yacute" unicode="&#xfd;" horiz-adv-x="533" 
d="M467 746l-139 -144h-98l93 144h144zM532 515l-229 -609q-18 -48 -42.5 -79.5t-54 -46t-58 -18.5t-64.5 -2v121q38 -2 58.5 13t37.5 58l17 48l-196 515h141l122 -345h3l123 345h142z" />
    <glyph glyph-name="thorn" unicode="&#xfe;" horiz-adv-x="624" 
d="M594 259q0 -114 -71.5 -192t-173.5 -78q-90 0 -151 61v-279h-133v923h133v-227q62 60 151 60q102 0 173.5 -77.5t71.5 -190.5zM462 259q0 61 -38.5 103t-93.5 42t-93.5 -42.5t-38.5 -102.5q0 -61 38.5 -104t93.5 -43t93.5 42t38.5 105z" />
    <glyph glyph-name="ydieresis" unicode="&#xff;" horiz-adv-x="532" 
d="M296 703h122v-111h-122v111zM108 703h122v-111h-122v111zM531 515l-228 -609q-35 -93 -90.5 -122t-146.5 -23v120q50 -3 76.5 12t42.5 59l15 39l-199 524h140l126 -372l123 372h141z" />
    <glyph glyph-name="Amacron" unicode="&#x100;" 
d="M470 139h-277l-47 -139h-140l242 694h167l242 -694h-140zM428 262l-97 285l-97 -285h194zM172 769v87h323v-87h-323z" />
    <glyph glyph-name="amacron" unicode="&#x101;" horiz-adv-x="582" 
d="M411 0q-8 18 -13 48q-55 -58 -158 -58q-88 0 -148.5 43.5t-60.5 123.5t56 113.5t155 42.5q75 7 111 19t36 41q0 21 -25.5 35t-68.5 14q-39 0 -72 -17t-41 -48h-132q10 75 76 123t166 48q59 0 103 -15t66.5 -35t36 -47t16.5 -44.5t3 -34.5v-268q0 -41 15 -84h-121z
M394 200v48q-36 -23 -125 -33q-53 -6 -79 -19t-26 -40q0 -22 24 -35.5t63 -13.5q64 0 103.5 23t39.5 70zM129 585v87h323v-87h-323z" />
    <glyph glyph-name="Abreve" unicode="&#x102;" 
d="M470 139h-277l-47 -139h-140l242 694h167l242 -694h-140zM428 262l-97 285l-97 -285h194zM488 898q-5 -58 -47 -95t-108 -37t-108 37t-47 95h69q8 -27 30.5 -43.5t55.5 -16.5q34 0 56.5 16.5t29.5 43.5h69z" />
    <glyph glyph-name="abreve" unicode="&#x103;" horiz-adv-x="582" 
d="M411 0q-8 18 -13 48q-55 -58 -158 -58q-88 0 -148.5 43.5t-60.5 123.5t56 113.5t155 42.5q75 7 111 19t36 41q0 21 -25.5 35t-68.5 14q-39 0 -72 -17t-41 -48h-132q10 75 76 123t166 48q59 0 103 -15t66.5 -35t36 -47t16.5 -44.5t3 -34.5v-268q0 -41 15 -84h-121z
M394 200v48q-36 -23 -125 -33q-53 -6 -79 -19t-26 -40q0 -22 24 -35.5t63 -13.5q64 0 103.5 23t39.5 70zM446 713q-5 -58 -47 -95t-108 -37t-108 37t-47 95h69q8 -27 30.5 -43.5t55.5 -16.5q34 0 56.5 16.5t29.5 43.5h69z" />
    <glyph glyph-name="Aogonek" unicode="&#x104;" 
d="M589 -135v-62q-42 -28 -90.5 -23.5t-68.5 40.5q-11 25 -9.5 55t27 65t69.5 60l-47 139h-277l-47 -139h-140l242 694h167l242 -694h-72q-50 -32 -72 -68t-9 -61q8 -18 34 -19.5t51 13.5zM428 262l-97 285l-97 -285h194z" />
    <glyph glyph-name="aogonek" unicode="&#x105;" horiz-adv-x="582" 
d="M483 -135v-62q-42 -28 -90.5 -23.5t-68.5 40.5q-11 25 -9.5 55t27 65t69.5 60q-8 18 -13 48q-55 -58 -158 -58q-88 0 -148.5 43.5t-60.5 123.5t56 113.5t155 42.5q75 7 111 19t36 41q0 21 -25.5 35t-68.5 14q-39 0 -72 -17t-41 -48h-132q10 75 76 123t166 48
q59 0 103 -15t66.5 -35t36 -47t16.5 -44.5t3 -34.5v-268q0 -41 15 -84h-53q-50 -32 -72 -68t-9 -61q8 -18 34 -19.5t51 13.5zM394 200v48q-36 -23 -125 -33q-53 -6 -79 -19t-26 -40q0 -22 24 -35.5t63 -13.5q64 0 103.5 23t39.5 70z" />
    <glyph glyph-name="Cacute" unicode="&#x106;" horiz-adv-x="708" 
d="M684 220q-33 -107 -117 -169.5t-198 -62.5q-142 0 -239 105t-97 257t97 257t239 105q117 0 200 -62t116 -169h-143q-24 49 -69.5 79.5t-103.5 30.5q-85 0 -144.5 -71t-59.5 -170q0 -100 59.5 -171t144.5 -71q57 0 103 31t70 81h142zM564 896l-144 -141h-97l93 141h148z
" />
    <glyph glyph-name="cacute" unicode="&#x107;" horiz-adv-x="571" 
d="M545 174q-22 -87 -88.5 -136.5t-160.5 -49.5q-115 0 -190.5 78t-75.5 191t75.5 192t190.5 79q93 0 159.5 -49.5t88.5 -136.5h-141q-14 28 -43 46.5t-64 18.5q-55 0 -93.5 -44.5t-38.5 -106.5q0 -61 38.5 -104.5t93.5 -43.5q36 0 65.5 19t42.5 47h141zM488 723l-144 -141
h-97l93 141h148z" />
    <glyph glyph-name="Ccaron" unicode="&#x10c;" horiz-adv-x="708" 
d="M684 220q-33 -107 -117 -169.5t-198 -62.5q-142 0 -239 105t-97 257t97 257t239 105q117 0 200 -62t116 -169h-143q-24 49 -69.5 79.5t-103.5 30.5q-85 0 -144.5 -71t-59.5 -170q0 -100 59.5 -171t144.5 -71q57 0 103 31t70 81h142zM541 893l-111 -142h-118l-111 142h108
l62 -83l61 83h109z" />
    <glyph glyph-name="ccaron" unicode="&#x10d;" horiz-adv-x="571" 
d="M545 174q-22 -87 -88.5 -136.5t-160.5 -49.5q-115 0 -190.5 78t-75.5 191t75.5 192t190.5 79q93 0 159.5 -49.5t88.5 -136.5h-141q-14 28 -43 46.5t-64 18.5q-55 0 -93.5 -44.5t-38.5 -106.5q0 -61 38.5 -104.5t93.5 -43.5q36 0 65.5 19t42.5 47h141zM462 724l-111 -142
h-118l-111 142h108l62 -83l61 83h109z" />
    <glyph glyph-name="Dcaron" unicode="&#x10e;" 
d="M634 347q0 -159 -85 -253t-228 -94h-257v694h257q145 0 229 -93.5t84 -253.5zM502 348q0 43 -8 79t-26.5 70t-56 54t-90.5 20h-125v-448h125q55 0 93.5 22.5t56 59.5t24.5 71t7 72zM433 903l-111 -142h-118l-111 142h108l62 -83l61 83h109z" />
    <glyph glyph-name="dcaron" unicode="&#x10f;" horiz-adv-x="622" 
d="M559 744v-744h-126v55q-64 -66 -158 -66q-101 0 -173 77.5t-72 190.5q0 114 72 191.5t173 77.5q89 0 152 -60v278h132zM427 256q0 61 -38.5 104.5t-93.5 43.5t-93.5 -42.5t-38.5 -105.5q0 -61 38.5 -103t93.5 -42t93.5 42.5t38.5 102.5zM851 748l-144 -141h-97l93 141
h148z" />
    <glyph glyph-name="Dcroat" unicode="&#x110;" horiz-adv-x="691" 
d="M658 347q0 -159 -85 -253t-228 -94h-257v321h-73v123h73v250h257q145 0 229 -93.5t84 -253.5zM526 348q0 43 -8 79t-26.5 70t-56 54t-90.5 20h-124v-127h163v-123h-163v-198h124q55 0 93.5 22.5t56 59.5t24.5 71t7 72z" />
    <glyph glyph-name="dcroat" unicode="&#x111;" horiz-adv-x="622" 
d="M329 595v87h98v62h132v-62h93v-87h-93v-595h-126v55q-64 -66 -158 -66q-101 0 -173 77.5t-72 190.5q0 114 72 191.5t173 77.5q89 0 152 -60v129h-98zM427 256q0 61 -38.5 104.5t-93.5 43.5t-93.5 -42.5t-38.5 -105.5q0 -61 38.5 -103t93.5 -42t93.5 42.5t38.5 102.5z" />
    <glyph glyph-name="Emacron" unicode="&#x112;" horiz-adv-x="608" 
d="M578 123v-123h-514v694h507v-123h-375v-148h320v-123h-320v-177h382zM170 764v87h323v-87h-323z" />
    <glyph glyph-name="emacron" unicode="&#x113;" horiz-adv-x="585" 
d="M553 206h-389q13 -47 47.5 -74.5t81.5 -27.5q77 0 109 60h141q-23 -80 -89 -128t-160 -48q-109 0 -186.5 78.5t-77.5 190.5t77.5 191.5t186.5 79.5q120 0 196.5 -87.5t62.5 -234.5zM166 314h256q-12 45 -47 71.5t-82 26.5q-45 0 -79 -26.5t-48 -71.5zM131 581v87h323v-87
h-323z" />
    <glyph glyph-name="Edotaccent" unicode="&#x116;" horiz-adv-x="608" 
d="M578 123v-123h-514v694h507v-123h-375v-148h320v-123h-320v-177h382zM267 862h123v-111h-123v111z" />
    <glyph glyph-name="edotaccent" unicode="&#x117;" horiz-adv-x="585" 
d="M553 206h-389q13 -47 47.5 -74.5t81.5 -27.5q77 0 109 60h141q-23 -80 -89 -128t-160 -48q-109 0 -186.5 78.5t-77.5 190.5t77.5 191.5t186.5 79.5q120 0 196.5 -87.5t62.5 -234.5zM166 314h256q-12 45 -47 71.5t-82 26.5q-45 0 -79 -26.5t-48 -71.5zM231 703h123v-111
h-123v111z" />
    <glyph glyph-name="Eogonek" unicode="&#x118;" horiz-adv-x="608" 
d="M396 -135v-62q-42 -28 -90.5 -23.5t-68.5 40.5q-11 25 -9.5 55t27 65t69.5 60h-260v694h507v-123h-375v-148h320v-123h-320v-177h382v-123h-186q-50 -32 -72 -68t-9 -61q8 -18 34 -19.5t51 13.5z" />
    <glyph glyph-name="eogonek" unicode="&#x119;" horiz-adv-x="585" 
d="M383 -135v-62q-42 -28 -90.5 -23.5t-68.5 40.5q-21 29 -3.5 80t71.5 88q-108 1 -185 79.5t-77 189.5q0 112 77.5 191.5t186.5 79.5q120 0 196.5 -87.5t62.5 -234.5h-389q13 -47 47.5 -74.5t81.5 -27.5q77 0 109 60h141q-17 -61 -60 -104t-105 -61q-50 -33 -71.5 -68
t-8.5 -60q8 -18 34 -19.5t51 13.5zM166 314h256q-12 45 -47 71.5t-82 26.5q-45 0 -79 -26.5t-48 -71.5z" />
    <glyph glyph-name="Ecaron" unicode="&#x11a;" horiz-adv-x="608" 
d="M578 123v-123h-514v694h507v-123h-375v-148h320v-123h-320v-177h382zM494 893l-111 -142h-118l-111 142h108l62 -83l61 83h109z" />
    <glyph glyph-name="ecaron" unicode="&#x11b;" horiz-adv-x="585" 
d="M553 206h-389q13 -47 47.5 -74.5t81.5 -27.5q77 0 109 60h141q-23 -80 -89 -128t-160 -48q-109 0 -186.5 78.5t-77.5 190.5t77.5 191.5t186.5 79.5q120 0 196.5 -87.5t62.5 -234.5zM166 314h256q-12 45 -47 71.5t-82 26.5q-45 0 -79 -26.5t-48 -71.5zM462 724l-111 -142
h-118l-111 142h108l62 -83l61 83h109z" />
    <glyph glyph-name="Gbreve" unicode="&#x11e;" horiz-adv-x="748" 
d="M698 386v-386h-122v75q-73 -87 -206 -87q-142 0 -239.5 104.5t-97.5 256.5t97.5 257t239.5 105q115 0 199 -61.5t116 -169.5h-142q-21 48 -68 79.5t-105 31.5q-86 0 -145.5 -71t-59.5 -171q0 -99 61.5 -170t149.5 -71q72 0 127 44t74 111h-188v123h309zM527 887
q-5 -58 -47 -95t-108 -37t-108 37t-47 95h69q8 -27 30.5 -43.5t55.5 -16.5q34 0 56.5 16.5t29.5 43.5h69z" />
    <glyph glyph-name="gbreve" unicode="&#x11f;" horiz-adv-x="612" 
d="M559 515v-489q0 -128 -71.5 -203t-195.5 -75q-94 0 -164.5 49.5t-85.5 130.5h145q12 -28 43 -42.5t62 -14.5q68 0 101.5 40.5t33.5 112.5v25q-63 -60 -152 -60q-101 0 -173 77.5t-72 190.5q0 114 72 191.5t173 77.5q94 0 158 -66v55h126zM427 256q0 61 -38.5 104.5
t-93.5 43.5t-93.5 -42.5t-38.5 -105.5q0 -61 38.5 -103t93.5 -42t93.5 42.5t38.5 102.5zM451 723q-5 -58 -47 -95t-108 -37t-108 37t-47 95h69q8 -27 30.5 -43.5t55.5 -16.5q34 0 56.5 16.5t29.5 43.5h69z" />
    <glyph glyph-name="Gcommaaccent" unicode="&#x122;" horiz-adv-x="748" 
d="M508 -131q0 -42 -33.5 -66t-80.5 -24q-64 0 -114 40l17 36q35 -19 66 -23t48 6t17 28q0 26 -27 33.5t-51 -5.5l-38 23l35 72q-134 9 -224 111.5t-90 248.5q0 152 97.5 257t239.5 105q115 0 199 -61.5t116 -169.5h-142q-21 48 -68 79.5t-105 31.5q-86 0 -145.5 -71
t-59.5 -171q0 -99 61.5 -170t149.5 -71q72 0 127 44t74 111h-188v123h309v-386h-122v75q-61 -72 -165 -84l-34 -51q27 9 56 8t52 -22.5t23 -56.5z" />
    <glyph glyph-name="gcommaaccent" unicode="&#x123;" horiz-adv-x="612" 
d="M559 515v-489q0 -128 -71.5 -203t-195.5 -75q-94 0 -164.5 49.5t-85.5 130.5h145q12 -28 43 -42.5t62 -14.5q68 0 101.5 40.5t33.5 112.5v25q-63 -60 -152 -60q-101 0 -173 77.5t-72 190.5q0 114 72 191.5t173 77.5q94 0 158 -66v55h126zM427 256q0 61 -38.5 104.5
t-93.5 43.5t-93.5 -42.5t-38.5 -105.5q0 -61 38.5 -103t93.5 -42t93.5 42.5t38.5 102.5zM238 748q29 17 73 17t71.5 -24t27.5 -61q0 -42 -33.5 -66.5t-80.5 -24.5q-64 0 -114 40l17 36q41 -24 81 -24q50 0 50 37q0 17 -13 27.5t-35 10.5q-23 0 -44 -9v41z" />
    <glyph glyph-name="Imacron" unicode="&#x12a;" horiz-adv-x="265" 
d="M199 694v-694h-132v694h132zM-29 769v87h323v-87h-323z" />
    <glyph glyph-name="imacron" unicode="&#x12b;" horiz-adv-x="259" 
d="M195 515v-515h-132v515h132zM-32 595v87h323v-87h-323z" />
    <glyph glyph-name="Iogonek" unicode="&#x12e;" horiz-adv-x="265" 
d="M139 -135v-62q-42 -28 -90.5 -23.5t-68.5 40.5q-11 25 -9.5 55t27 65t69.5 60v694h132v-694h-64q-50 -32 -72 -68t-9 -61q8 -18 34 -19.5t51 13.5z" />
    <glyph glyph-name="iogonek" unicode="&#x12f;" horiz-adv-x="258" 
d="M135 -135v-62q-42 -28 -90.5 -23.5t-68.5 40.5q-11 25 -9.5 55t27 65t69.5 60v515h132v-515h-64q-50 -32 -72 -68t-9 -61q8 -18 34 -19.5t51 13.5zM195 694v-123h-132v123h132z" />
    <glyph glyph-name="Idotaccent" unicode="&#x130;" horiz-adv-x="265" 
d="M199 694v-694h-132v694h132zM71 872h123v-111h-123v111z" />
    <glyph glyph-name="dotlessi" unicode="&#x131;" horiz-adv-x="259" 
d="M195 515v-515h-132v515h132z" />
    <glyph glyph-name="Kcommaaccent" unicode="&#x136;" horiz-adv-x="648" 
d="M265 308l-68 -71v-237h-133v694h133v-280l261 280h182l-282 -290l294 -404h-172zM266 -45q29 17 73 17t71.5 -24t27.5 -61q0 -42 -33.5 -66.5t-80.5 -24.5q-64 0 -114 40l17 36q41 -24 81 -24q50 0 50 37q0 17 -13 27.5t-35 10.5q-23 0 -44 -9v41z" />
    <glyph glyph-name="kcommaaccent" unicode="&#x137;" horiz-adv-x="558" 
d="M258 217l-66 -69v-148h-132v744h132v-416l169 187h182l-192 -201l203 -314h-168zM221 -42q29 17 73 17t71.5 -24t27.5 -61q0 -42 -33.5 -66.5t-80.5 -24.5q-64 0 -114 40l17 36q40 -24 81 -24q50 0 50 37q0 17 -13 27.5t-35 10.5q-23 0 -44 -9v41z" />
    <glyph glyph-name="Lacute" unicode="&#x139;" horiz-adv-x="559" 
d="M197 694v-571h345v-123h-478v694h133zM330 902l-144 -141h-97l93 141h148z" />
    <glyph glyph-name="lacute" unicode="&#x13a;" horiz-adv-x="257" 
d="M195 744v-744h-132v744h132zM319 943l-144 -141h-97l93 141h148z" />
    <glyph glyph-name="Lcommaaccent" unicode="&#x13b;" horiz-adv-x="559" 
d="M393 -127q0 -42 -33.5 -66t-80.5 -24q-64 0 -114 40l17 36q35 -19 66 -23t48 6t17 28q0 26 -27 33.5t-51 -5.5l-38 23l39 79h-172v694h133v-571h345v-123h-242l-38 -56q27 9 56 8t52 -22.5t23 -56.5z" />
    <glyph glyph-name="lcommaaccent" unicode="&#x13c;" horiz-adv-x="257" 
d="M218 -131q0 -42 -33.5 -66t-80.5 -24q-64 0 -114 40l17 36q35 -19 66 -23t48 6t17 28q0 26 -27 33.5t-51 -5.5l-38 23l41 83v744h132v-744h-67l-41 -60q27 9 56 8t52 -22.5t23 -56.5z" />
    <glyph glyph-name="Lcaron" unicode="&#x13d;" horiz-adv-x="559" 
d="M197 694v-571h345v-123h-478v694h133zM510 702l-144 -141h-97l93 141h148z" />
    <glyph glyph-name="lcaron" unicode="&#x13e;" horiz-adv-x="257" 
d="M195 744v-744h-132v744h132zM469 747l-144 -141h-97l93 141h148z" />
    <glyph glyph-name="Lslash" unicode="&#x141;" horiz-adv-x="597" 
d="M580 123v-123h-478v260l-87 -52v94l87 52v340h132v-260l135 81v-94l-135 -81v-217h346z" />
    <glyph glyph-name="lslash" unicode="&#x142;" horiz-adv-x="335" 
d="M320 392l-86 -52v-340h-132v260l-87 -52v94l87 52v340h132v-260l86 52v-94z" />
    <glyph glyph-name="Nacute" unicode="&#x143;" horiz-adv-x="702" 
d="M638 694v-694h-159l-283 494v-494h-132v694h159l282 -494v494h133zM541 902l-144 -141h-97l93 141h148z" />
    <glyph glyph-name="nacute" unicode="&#x144;" horiz-adv-x="577" 
d="M520 301v-301h-132v301q0 15 -3 29.5t-12 32.5t-30 29t-51 11q-44 0 -72 -29t-28 -73v-301h-132v515h126v-50q53 63 133 63q91 0 146 -62.5t55 -164.5zM509 723l-144 -141h-97l93 141h148z" />
    <glyph glyph-name="Ncommaaccent" unicode="&#x145;" horiz-adv-x="702" 
d="M638 694v-694h-159l-283 494v-494h-132v694h159l282 -494v494h133zM293 -42q29 17 73 17t71.5 -24t27.5 -61q0 -42 -33.5 -66.5t-80.5 -24.5q-64 0 -114 40l17 36q40 -24 81 -24q50 0 50 37q0 17 -13 27.5t-35 10.5q-23 0 -44 -9v41z" />
    <glyph glyph-name="ncommaaccent" unicode="&#x146;" horiz-adv-x="577" 
d="M520 301v-301h-132v301q0 15 -3 29.5t-12 32.5t-30 29t-51 11q-44 0 -72 -29t-28 -73v-301h-132v515h126v-50q53 63 133 63q91 0 146 -62.5t55 -164.5zM230 -42q29 17 73 17t71.5 -24t27.5 -61q0 -42 -33.5 -66.5t-80.5 -24.5q-64 0 -114 40l17 36q41 -24 81 -24
q50 0 50 37q0 17 -13 27.5t-35 10.5q-23 0 -44 -9v41z" />
    <glyph glyph-name="Ncaron" unicode="&#x147;" horiz-adv-x="702" 
d="M638 694v-694h-159l-283 494v-494h-132v694h159l282 -494v494h133zM521 903l-111 -142h-118l-111 142h108l62 -83l61 83h109z" />
    <glyph glyph-name="ncaron" unicode="&#x148;" horiz-adv-x="577" 
d="M520 301v-301h-132v301q0 15 -3 29.5t-12 32.5t-30 29t-51 11q-44 0 -72 -29t-28 -73v-301h-132v515h126v-50q53 63 133 63q91 0 146 -62.5t55 -164.5zM488 724l-111 -142h-118l-111 142h108l62 -83l61 83h109z" />
    <glyph glyph-name="Omacron" unicode="&#x14c;" horiz-adv-x="745" 
d="M373 711q146 0 242.5 -104.5t96.5 -256.5q0 -153 -96.5 -257.5t-242.5 -104.5t-243 104.5t-97 257.5q0 152 97 256.5t243 104.5zM373 113q85 0 145.5 69.5t60.5 167.5q0 97 -60.5 166.5t-145.5 69.5q-86 0 -146.5 -69.5t-60.5 -166.5q0 -98 60.5 -167.5t146.5 -69.5z
M211 774v87h323v-87h-323z" />
    <glyph glyph-name="omacron" unicode="&#x14d;" horiz-adv-x="579" 
d="M289 528q108 0 184 -78t76 -193q0 -114 -76 -191.5t-184 -77.5t-183.5 77t-75.5 192t75.5 193t183.5 78zM289 109q53 0 90 41.5t37 105.5q0 66 -37 108.5t-90 42.5t-90 -42.5t-37 -108.5q0 -64 37 -105.5t90 -41.5zM128 585v87h323v-87h-323z" />
    <glyph glyph-name="Ohungarumlaut" unicode="&#x150;" horiz-adv-x="745" 
d="M373 711q146 0 242.5 -104.5t96.5 -256.5q0 -153 -96.5 -257.5t-242.5 -104.5t-243 104.5t-97 257.5q0 152 97 256.5t243 104.5zM373 113q85 0 145.5 69.5t60.5 167.5q0 97 -60.5 166.5t-145.5 69.5q-86 0 -146.5 -69.5t-60.5 -166.5q0 -98 60.5 -167.5t146.5 -69.5z
M610 902l-110 -141h-82l66 141h126zM427 902l-111 -141h-82l66 141h127z" />
    <glyph glyph-name="ohungarumlaut" unicode="&#x151;" horiz-adv-x="579" 
d="M289 528q108 0 184 -78t76 -193q0 -114 -76 -191.5t-184 -77.5t-183.5 77t-75.5 192t75.5 193t183.5 78zM289 109q53 0 90 41.5t37 105.5q0 66 -37 108.5t-90 42.5t-90 -42.5t-37 -108.5q0 -64 37 -105.5t90 -41.5zM527 723l-110 -141h-82l66 141h126zM344 723l-111 -141
h-82l66 141h127z" />
    <glyph glyph-name="OE" unicode="&#x152;" horiz-adv-x="1123" 
d="M710 123h383v-123h-515v68q-83 -80 -205 -80q-147 0 -243.5 104.5t-96.5 257.5q0 152 96.5 256.5t243.5 104.5q122 0 205 -80v63h507v-123h-375v-148h320v-123h-320v-177zM578 338v23q-4 93 -63.5 159t-141.5 66q-86 0 -147 -69.5t-61 -166.5t61 -167t147 -70
q82 0 141.5 66t63.5 159z" />
    <glyph glyph-name="oe" unicode="&#x153;" horiz-adv-x="966" 
d="M933 206h-388q13 -46 48 -72t80 -26q72 0 111 56h139q-23 -80 -88.5 -128t-159.5 -48q-59 0 -111 25t-86 68q-30 -43 -80 -68t-109 -25q-107 0 -183 78.5t-76 190.5t76 191.5t183 79.5q59 0 109 -25.5t80 -69.5q34 44 86 69.5t111 25.5q120 0 197 -87t61 -235zM548 317
h253q-13 42 -48 66.5t-80 24.5q-42 0 -76 -24.5t-49 -66.5zM417 257q0 59 -37.5 101t-90.5 42q-52 0 -89.5 -42t-37.5 -101q0 -58 37 -99.5t90 -41.5t90.5 41t37.5 100z" />
    <glyph glyph-name="Racute" unicode="&#x154;" 
d="M598 84q0 -44 16 -84h-134q-14 33 -14 76v106q0 44 -22 65t-68 21h-180v-268h-132v694h317q110 0 174 -55t64 -152q0 -113 -97 -158q76 -42 76 -148v-97zM196 387h188q11 0 24 3t33 11t33 28.5t13 50.5q0 11 -0.5 19t-6.5 23t-16 24.5t-31.5 17t-51.5 7.5h-185v-184z
M484 902l-144 -141h-97l93 141h148z" />
    <glyph glyph-name="racute" unicode="&#x155;" horiz-adv-x="364" 
d="M352 525v-128q-88 10 -127 -32q-33 -34 -33 -112v-253h-132v515h126v-51q63 78 166 61zM313 723l-144 -141h-97l93 141h148z" />
    <glyph glyph-name="Rcommaaccent" unicode="&#x156;" 
d="M598 84q0 -44 16 -84h-134q-14 33 -14 76v106q0 44 -22 65t-68 21h-180v-268h-132v694h317q110 0 174 -55t64 -152q0 -113 -97 -158q76 -42 76 -148v-97zM196 387h188q11 0 24 3t33 11t33 28.5t13 50.5q0 11 -0.5 19t-6.5 23t-16 24.5t-31.5 17t-51.5 7.5h-185v-184z
M275 -42q29 17 73 17t71.5 -24t27.5 -61q0 -42 -33.5 -66.5t-80.5 -24.5q-64 0 -114 40l17 36q40 -24 81 -24q50 0 50 37q0 17 -13 27.5t-35 10.5q-23 0 -44 -9v41z" />
    <glyph glyph-name="rcommaaccent" unicode="&#x157;" horiz-adv-x="364" 
d="M215 -131q0 -42 -33.5 -66t-80.5 -24q-64 0 -114 40l17 36q35 -19 66 -23t48 6t17 28q0 26 -27 33.5t-51 -5.5l-38 23l41 83v515h126v-51q63 78 166 61v-128q-88 10 -127 -32q-33 -34 -33 -112v-253h-67l-41 -60q27 9 56 8t52 -22.5t23 -56.5z" />
    <glyph glyph-name="Rcaron" unicode="&#x158;" 
d="M598 84q0 -44 16 -84h-134q-14 33 -14 76v106q0 44 -22 65t-68 21h-180v-268h-132v694h317q110 0 174 -55t64 -152q0 -113 -97 -158q76 -42 76 -148v-97zM196 387h188q11 0 24 3t33 11t33 28.5t13 50.5q0 11 -0.5 19t-6.5 23t-16 24.5t-31.5 17t-51.5 7.5h-185v-184z
M483 903l-111 -142h-118l-111 142h108l62 -83l61 83h109z" />
    <glyph glyph-name="rcaron" unicode="&#x159;" horiz-adv-x="364" 
d="M352 525v-128q-88 10 -127 -32q-33 -34 -33 -112v-253h-132v515h126v-51q63 78 166 61zM362 724l-111 -142h-118l-111 142h108l62 -83l61 83h109z" />
    <glyph glyph-name="Sacute" unicode="&#x15a;" horiz-adv-x="647" 
d="M321 712q128 0 197 -68.5t69 -159.5h-132q0 46 -36 75.5t-98 29.5q-56 0 -95.5 -21t-39.5 -59q0 -34 34 -51.5t119 -35.5q69 -14 113 -28.5t82.5 -38.5t56 -60.5t17.5 -88.5q0 -100 -77.5 -159t-209.5 -59q-53 0 -102 14.5t-90.5 43t-66.5 76.5t-25 108h132
q0 -57 46.5 -89t105.5 -32q64 0 109.5 23.5t45.5 69.5q0 34 -35.5 56t-128.5 40q-57 11 -95.5 23.5t-79.5 35.5t-62 61.5t-21 91.5q0 90 73 146t194 56zM504 902l-144 -141h-97l93 141h148z" />
    <glyph glyph-name="sacute" unicode="&#x15b;" horiz-adv-x="526" 
d="M495 162q0 -76 -63.5 -125t-162.5 -49t-165.5 48.5t-78.5 131.5h134q12 -30 44 -45t66 -15q41 0 67 12t26 34t-21 33.5t-87 21.5q-34 5 -58.5 10t-56.5 17t-51.5 27t-34 41t-14.5 59q0 67 57.5 116t162.5 49q88 0 149 -44t74 -117h-137q-14 43 -86 43q-42 0 -64 -12.5
t-22 -28.5q0 -19 24 -28.5t78 -17.5q54 -9 89 -18.5t67.5 -27.5t48 -46t15.5 -69zM443 723l-144 -141h-97l93 141h148z" />
    <glyph glyph-name="Scedilla" unicode="&#x15e;" horiz-adv-x="647" 
d="M437 -131q0 -42 -33.5 -66t-80.5 -24q-64 0 -114 40l17 36q35 -19 66 -23t48 6t17 28q0 26 -27 33.5t-51 -5.5l-38 23l36 74q-101 12 -170.5 73t-69.5 166h132q0 -57 46.5 -89t105.5 -32q64 0 109.5 23.5t45.5 69.5q0 34 -35.5 56t-128.5 40q-57 11 -95.5 23.5
t-79.5 35.5t-62 61.5t-21 91.5q0 90 73 146t194 56q128 0 197 -68.5t69 -159.5h-132q0 46 -36 75.5t-98 29.5q-56 0 -95.5 -21t-39.5 -59q0 -34 34 -51.5t119 -35.5q69 -14 113 -28.5t82.5 -38.5t56 -60.5t17.5 -88.5q0 -97 -72.5 -155t-196.5 -63l-33 -48q27 9 56 8
t52 -22.5t23 -56.5z" />
    <glyph glyph-name="Scedilla" unicode="&#xf6c1;" horiz-adv-x="647" 
d="M437 -131q0 -42 -33.5 -66t-80.5 -24q-64 0 -114 40l17 36q35 -19 66 -23t48 6t17 28q0 26 -27 33.5t-51 -5.5l-38 23l36 74q-101 12 -170.5 73t-69.5 166h132q0 -57 46.5 -89t105.5 -32q64 0 109.5 23.5t45.5 69.5q0 34 -35.5 56t-128.5 40q-57 11 -95.5 23.5
t-79.5 35.5t-62 61.5t-21 91.5q0 90 73 146t194 56q128 0 197 -68.5t69 -159.5h-132q0 46 -36 75.5t-98 29.5q-56 0 -95.5 -21t-39.5 -59q0 -34 34 -51.5t119 -35.5q69 -14 113 -28.5t82.5 -38.5t56 -60.5t17.5 -88.5q0 -97 -72.5 -155t-196.5 -63l-33 -48q27 9 56 8
t52 -22.5t23 -56.5z" />
    <glyph glyph-name="scedilla" unicode="&#x15f;" horiz-adv-x="526" 
d="M397 -131q0 -42 -33.5 -66t-80.5 -24q-64 0 -114 40l17 36q35 -19 66 -23t48 6t17 28q0 26 -27 33.5t-51 -5.5l-38 23l35 73q-86 8 -143.5 55t-67.5 123h134q12 -30 44 -45t66 -15q41 0 67 12t26 34t-21 33.5t-87 21.5q-34 5 -58.5 10t-56.5 17t-51.5 27t-34 41t-14.5 59
q0 67 57.5 116t162.5 49q88 0 149 -44t74 -117h-137q-14 43 -86 43q-42 0 -64 -12.5t-22 -28.5q0 -19 24 -28.5t78 -17.5q54 -9 89 -18.5t67.5 -27.5t48 -46t15.5 -69q0 -70 -54.5 -117.5t-141.5 -55.5l-33 -49q27 9 56 8t52 -22.5t23 -56.5z" />
    <glyph glyph-name="scedilla" unicode="&#xf6c2;" horiz-adv-x="526" 
d="M397 -131q0 -42 -33.5 -66t-80.5 -24q-64 0 -114 40l17 36q35 -19 66 -23t48 6t17 28q0 26 -27 33.5t-51 -5.5l-38 23l35 73q-86 8 -143.5 55t-67.5 123h134q12 -30 44 -45t66 -15q41 0 67 12t26 34t-21 33.5t-87 21.5q-34 5 -58.5 10t-56.5 17t-51.5 27t-34 41t-14.5 59
q0 67 57.5 116t162.5 49q88 0 149 -44t74 -117h-137q-14 43 -86 43q-42 0 -64 -12.5t-22 -28.5q0 -19 24 -28.5t78 -17.5q54 -9 89 -18.5t67.5 -27.5t48 -46t15.5 -69q0 -70 -54.5 -117.5t-141.5 -55.5l-33 -49q27 9 56 8t52 -22.5t23 -56.5z" />
    <glyph glyph-name="Scaron" unicode="&#x160;" horiz-adv-x="648" 
d="M493 919l-110 -142h-119l-111 142h109l61 -83l62 83h108zM322 711q66 0 118 -20t83.5 -53t48 -72.5t16.5 -81.5h-132q0 45 -36.5 75t-97.5 30q-57 0 -96 -21t-39 -60q0 -34 34.5 -53t118.5 -35q54 -11 91.5 -21t73.5 -27t57.5 -38.5t34 -53.5t12.5 -74
q0 -100 -78.5 -159.5t-209.5 -59.5q-52 0 -101.5 15t-91 43.5t-66.5 76.5t-25 108h132q0 -57 47 -89t105 -32q64 0 110 23t46 70q0 35 -36 57.5t-128 39.5q-57 11 -96 23t-79.5 35t-61.5 61.5t-21 91.5q0 90 73 145.5t194 55.5z" />
    <glyph glyph-name="scaron" unicode="&#x161;" horiz-adv-x="526" 
d="M442 740l-110 -141h-119l-111 141h109l61 -82l62 82h108zM495 162q0 -77 -63.5 -126t-162.5 -49t-165.5 49t-78.5 132h134q13 -29 45 -44.5t65 -15.5q40 0 69 13.5t29 32.5q0 22 -23 34t-90 22q-35 5 -58.5 10t-56 16.5t-52 27t-34 41t-14.5 58.5q0 67 57.5 116t162.5 49
q88 0 149 -44t74 -117h-137q-7 17 -29.5 30t-56.5 13q-43 0 -67 -12.5t-24 -29.5q0 -18 25.5 -27t81.5 -18q54 -9 89 -18.5t67.5 -27.5t48 -46t15.5 -69z" />
    <glyph glyph-name="Tcommaaccent" unicode="&#x162;" horiz-adv-x="536" 
d="M357 -131q0 -42 -33.5 -66t-80.5 -24q-64 0 -114 40l17 36q35 -19 66 -23t48 6t17 28q0 26 -27 33.5t-51 -5.5l-38 23l41 83v571h-186v123h504v-123h-186v-571h-67l-41 -60q27 9 56 8t52 -22.5t23 -56.5z" />
    <glyph glyph-name="Tcommaaccent" unicode="&#x21a;" horiz-adv-x="536" 
d="M357 -131q0 -42 -33.5 -66t-80.5 -24q-64 0 -114 40l17 36q35 -19 66 -23t48 6t17 28q0 26 -27 33.5t-51 -5.5l-38 23l41 83v571h-186v123h504v-123h-186v-571h-67l-41 -60q27 9 56 8t52 -22.5t23 -56.5z" />
    <glyph glyph-name="tcommaaccent" unicode="&#x163;" horiz-adv-x="316" 
d="M391 -130q0 -42 -33.5 -66t-80.5 -24q-64 0 -114 40l17 36q35 -19 66 -23t48 6t17 28q0 26 -27 33.5t-51 -5.5l-38 23l41 83q-80 10 -123 67.5t-43 148.5v181h-62v117h62v131h132v-131h93v-117h-93v-182q0 -53 24.5 -75.5t74.5 -19.5v-120l-41 -60q27 9 56 8t52 -22.5
t23 -56.5z" />
    <glyph glyph-name="tcommaaccent" unicode="&#x21b;" horiz-adv-x="316" 
d="M391 -130q0 -42 -33.5 -66t-80.5 -24q-64 0 -114 40l17 36q35 -19 66 -23t48 6t17 28q0 26 -27 33.5t-51 -5.5l-38 23l41 83q-80 10 -123 67.5t-43 148.5v181h-62v117h62v131h132v-131h93v-117h-93v-182q0 -53 24.5 -75.5t74.5 -19.5v-120l-41 -60q27 9 56 8t52 -22.5
t23 -56.5z" />
    <glyph glyph-name="Tcaron" unicode="&#x164;" horiz-adv-x="536" 
d="M520 571h-186v-571h-132v571h-186v123h504v-123zM438 903l-111 -142h-118l-111 142h108l62 -83l61 83h109z" />
    <glyph glyph-name="tcaron" unicode="&#x165;" horiz-adv-x="316" 
d="M301 121v-120q-110 -12 -170.5 47.5t-60.5 168.5v181h-62v117h62v131h132v-131h93v-117h-93v-182q0 -53 24.5 -75.5t74.5 -19.5zM489 693l-144 -141h-97l93 141h148z" />
    <glyph glyph-name="Umacron" unicode="&#x16a;" horiz-adv-x="650" 
d="M593 694v-419q0 -135 -69.5 -211t-198.5 -76t-198 76t-69 211v419h132v-423q0 -155 135 -155t135 155v423h133zM163 774v87h323v-87h-323z" />
    <glyph glyph-name="umacron" unicode="&#x16b;" horiz-adv-x="576" 
d="M516 515v-515h-126v47q-51 -59 -131 -59q-91 0 -147 62.5t-56 163.5v301h132v-301q0 -14 3.5 -28.5t12 -32.5t29.5 -29t51 -11q44 0 72 29t28 72v301h132zM126 585v87h323v-87h-323z" />
    <glyph glyph-name="Uring" unicode="&#x16e;" horiz-adv-x="650" 
d="M593 694v-419q0 -135 -69.5 -211t-198.5 -76t-198 76t-69 211v419h132v-423q0 -155 135 -155t135 155v423h133zM325 977q44 0 75 -31.5t31 -75.5t-31.5 -75t-74.5 -31t-74.5 31t-31.5 75t31 75.5t75 31.5zM325 821q20 0 34 14.5t14 34.5t-14 34.5t-34 14.5t-34 -14.5
t-14 -34.5t14 -34.5t34 -14.5z" />
    <glyph glyph-name="uring" unicode="&#x16f;" horiz-adv-x="576" 
d="M516 515v-515h-126v47q-51 -59 -131 -59q-91 0 -147 62.5t-56 163.5v301h132v-301q0 -14 3.5 -28.5t12 -32.5t29.5 -29t51 -11q44 0 72 29t28 72v301h132zM288 798q44 0 75 -31.5t31 -75.5q0 -43 -31 -74.5t-75 -31.5t-75 31.5t-31 74.5q0 44 31 75.5t75 31.5zM288 642
q20 0 34 14.5t14 34.5t-14 34.5t-34 14.5t-34 -14.5t-14 -34.5t14 -34.5t34 -14.5z" />
    <glyph glyph-name="Uhungarumlaut" unicode="&#x170;" horiz-adv-x="650" 
d="M593 694v-419q0 -135 -69.5 -211t-198.5 -76t-198 76t-69 211v419h132v-423q0 -155 135 -155t135 155v423h133zM553 902l-110 -141h-82l66 141h126zM370 902l-111 -141h-82l66 141h127z" />
    <glyph glyph-name="uhungarumlaut" unicode="&#x171;" horiz-adv-x="576" 
d="M516 515v-515h-126v47q-51 -59 -131 -59q-91 0 -147 62.5t-56 163.5v301h132v-301q0 -14 3.5 -28.5t12 -32.5t29.5 -29t51 -11q44 0 72 29t28 72v301h132zM526 723l-110 -141h-82l66 141h126zM343 723l-111 -141h-82l66 141h127z" />
    <glyph glyph-name="Uogonek" unicode="&#x172;" horiz-adv-x="650" 
d="M420 -135v-62q-42 -28 -90.5 -23.5t-68.5 40.5q-21 29 -3.5 80t71.5 88h-4q-129 0 -198 76t-69 211v419h132v-423q0 -155 135 -155t135 155v423h133v-419q0 -109 -45.5 -180t-132.5 -95q-50 -33 -71.5 -68.5t-8.5 -60.5q8 -18 34 -19.5t51 13.5z" />
    <glyph glyph-name="uogonek" unicode="&#x173;" horiz-adv-x="576" 
d="M462 -135v-62q-42 -28 -90.5 -23.5t-68.5 40.5q-11 25 -9.5 55t27 65t69.5 60v47q-51 -59 -131 -59q-91 0 -147 62.5t-56 163.5v301h132v-301q0 -14 3.5 -28.5t12 -32.5t29.5 -29t51 -11q44 0 72 29t28 72v301h132v-515h-58q-50 -32 -72 -68t-9 -61q8 -18 34 -19.5
t51 13.5z" />
    <glyph glyph-name="Ydieresis" unicode="&#x178;" horiz-adv-x="595" 
d="M337 874h123v-111h-123v111zM149 874h123v-111h-123v111zM364 266v-266h-133v266l-233 428h149l150 -297l151 297h149z" />
    <glyph glyph-name="Zacute" unicode="&#x179;" horiz-adv-x="593" 
d="M567 123v-123h-542v118l372 453h-360v123h521v-117l-372 -454h381zM477 902l-144 -141h-97l93 141h148z" />
    <glyph glyph-name="zacute" unicode="&#x17a;" horiz-adv-x="493" 
d="M471 119v-119h-450v114l272 282h-261v119h430v-118l-267 -278h276zM437 723l-144 -141h-97l93 141h148z" />
    <glyph glyph-name="Zdotaccent" unicode="&#x17b;" horiz-adv-x="593" 
d="M567 123v-123h-542v118l372 453h-360v123h521v-117l-372 -454h381zM235 882h123v-111h-123v111z" />
    <glyph glyph-name="zdotaccent" unicode="&#x17c;" horiz-adv-x="493" 
d="M471 119v-119h-450v114l272 282h-261v119h430v-118l-267 -278h276zM185 703h123v-111h-123v111z" />
    <glyph glyph-name="Zcaron" unicode="&#x17d;" horiz-adv-x="594" 
d="M482 919l-111 -142h-118l-111 142h108l62 -83l61 83h109zM189 123h379v-123h-543v118l370 450v3h-357v123h520v-117l-369 -451v-3z" />
    <glyph glyph-name="zcaron" unicode="&#x17e;" horiz-adv-x="493" 
d="M421 740l-110 -141h-119l-111 141h109l61 -82l62 82h108zM202 124h269v-124h-450v114l264 274v3h-253v124h430v-118l-260 -270v-3z" />
    <glyph glyph-name="florin" unicode="&#x192;" horiz-adv-x="470" 
d="M466 683v-110q-58 14 -93 -2.5t-48 -75.5l-8 -40h85v-74h-100l-47 -218q-21 -100 -87.5 -139.5t-163.5 -12.5v110q59 -14 94 2.5t47 76.5l38 181h-84v74h100l16 76q22 101 88.5 140.5t162.5 11.5z" />
    <glyph glyph-name="circumflex" unicode="&#x2c6;" horiz-adv-x="417" 
d="M268 582l-62 83l-61 -83h-109l111 142h118l111 -142h-108z" />
    <glyph glyph-name="caron" unicode="&#x2c7;" horiz-adv-x="420" 
d="M380 724l-111 -142h-118l-111 142h108l62 -83l61 83h109z" />
    <glyph glyph-name="breve" unicode="&#x2d8;" horiz-adv-x="390" 
d="M350 723q-5 -58 -47 -95t-108 -37t-108 37t-47 95h69q8 -27 30.5 -43.5t55.5 -16.5q34 0 56.5 16.5t29.5 43.5h69z" />
    <glyph glyph-name="dotaccent" unicode="&#x2d9;" horiz-adv-x="203" 
d="M40 703h123v-111h-123v111z" />
    <glyph glyph-name="ring" unicode="&#x2da;" horiz-adv-x="295" 
d="M148 798q44 0 75 -31.5t31 -75.5q0 -43 -31 -74.5t-75 -31.5t-75 31.5t-31 74.5q0 44 31 75.5t75 31.5zM148 642q20 0 34 14.5t14 34.5t-14 34.5t-34 14.5t-34 -14.5t-14 -34.5t14 -34.5t34 -14.5z" />
    <glyph glyph-name="ogonek" unicode="&#x2db;" horiz-adv-x="249" 
d="M209 -135v-62q-42 -28 -90.5 -23.5t-68.5 40.5q-11 25 -9.5 55t27 65t69.5 60h68q-50 -32 -72 -68t-9 -61q8 -18 34 -19.5t51 13.5z" />
    <glyph glyph-name="tilde" unicode="&#x2dc;" horiz-adv-x="417" 
d="M383 712q-7 -50 -34 -84.5t-71 -34.5q-31 0 -77 18.5t-63 18.5q-35 0 -45 -41h-62q8 50 35.5 84.5t74.5 34.5q32 0 76.5 -19t60.5 -19q32 0 43 42h62z" />
    <glyph glyph-name="hungarumlaut" unicode="&#x2dd;" horiz-adv-x="456" 
d="M416 723l-110 -141h-82l66 141h126zM233 723l-111 -141h-82l66 141h127z" />
    <glyph glyph-name="afii10023" unicode="&#x401;" horiz-adv-x="608" 
d="M364 874h123v-111h-123v111zM176 874h123v-111h-123v111zM578 123v-123h-514v694h507v-123h-375v-148h320v-123h-320v-177h382z" />
    <glyph glyph-name="afii10051" unicode="&#x402;" horiz-adv-x="787" 
d="M334 300v-300h-132v571h-186v123h504v-123h-186v-150h210q98 0 158 -58t60 -152t-60 -152.5t-158 -58.5h-112v121h94q101 0 101 90q0 89 -101 89h-192z" />
    <glyph glyph-name="afii10052" unicode="&#x403;" horiz-adv-x="564" 
d="M490 893l-144 -141h-97l93 141h148zM64 0v694h471v-123h-339v-571h-132z" />
    <glyph glyph-name="afii10053" unicode="&#x404;" horiz-adv-x="708" 
d="M171 285q17 -85 73.5 -131t131.5 -46q111 0 166 112h142q-34 -108 -113.5 -170t-194.5 -62q-145 0 -244 98.5t-99 263.5q0 167 98.5 264.5t244.5 97.5q117 0 196.5 -61t112.5 -170h-143q-54 110 -166 110q-77 0 -134 -47.5t-72 -135.5h269v-123h-268z" />
    <glyph glyph-name="afii10054" unicode="&#x405;" horiz-adv-x="647" 
d="M321 712q128 0 197 -68.5t69 -159.5h-132q0 46 -36 75.5t-98 29.5q-56 0 -95.5 -21t-39.5 -59q0 -34 34 -51.5t119 -35.5q69 -14 113 -28.5t82.5 -38.5t56 -60.5t17.5 -88.5q0 -100 -77.5 -159t-209.5 -59q-53 0 -102 14.5t-90.5 43t-66.5 76.5t-25 108h132
q0 -57 46.5 -89t105.5 -32q64 0 109.5 23.5t45.5 69.5q0 34 -35.5 56t-128.5 40q-57 11 -95.5 23.5t-79.5 35.5t-62 61.5t-21 91.5q0 90 73 146t194 56z" />
    <glyph glyph-name="afii10055" unicode="&#x406;" horiz-adv-x="265" 
d="M199 694v-694h-132v694h132z" />
    <glyph glyph-name="afii10056" unicode="&#x407;" horiz-adv-x="265" 
d="M169 874h123v-111h-123v111zM-19 874h123v-111h-123v111zM199 694v-694h-132v694h132z" />
    <glyph glyph-name="afii10057" unicode="&#x408;" horiz-adv-x="528" 
d="M243 -13q-102 0 -164 64.5t-62 162.5v48h132v-52q0 -39 24 -66.5t70 -27.5t70.5 27.5t24.5 66.5v484h132v-480q0 -98 -62.5 -162.5t-164.5 -64.5z" />
    <glyph glyph-name="afii10058" unicode="&#x409;" horiz-adv-x="1065" 
d="M629 421h193q98 0 158 -58t60 -152t-60 -152.5t-158 -58.5h-325v571h-163l-183 -571h-141l223 694h396v-273zM905 211q0 89 -101 89h-175v-179h175q101 0 101 90z" />
    <glyph glyph-name="afii10059" unicode="&#x40a;" horiz-adv-x="1039" 
d="M471 300h-274v-300h-133v694h133v-273h274v273h132v-273h193q98 0 158 -58t60 -152t-60 -152.5t-158 -58.5h-325v300zM879 211q0 89 -101 89h-175v-179h175q101 0 101 90z" />
    <glyph glyph-name="afii10060" unicode="&#x40b;" horiz-adv-x="788" 
d="M334 300v-300h-132v571h-186v123h504v-123h-186v-150h182q100 0 156.5 -57.5t56.5 -154.5v-209h-135v209q0 91 -96 91h-164z" />
    <glyph glyph-name="afii10061" unicode="&#x40c;" horiz-adv-x="648" 
d="M517 893l-144 -141h-97l93 141h148zM265 308l-68 -71v-237h-133v694h133v-280l261 280h182l-282 -290l294 -404h-172z" />
    <glyph glyph-name="afii10062" unicode="&#x40e;" horiz-adv-x="627" 
d="M485 907q-6 -70 -54 -115t-121 -45t-121 45t-54 115h94q6 -28 27 -46t54 -18t54 18t27 46h94zM258 190l-254 504h147l171 -357l154 357h147l-254 -542q-35 -75 -90.5 -113.5t-146.5 -38.5h-53v123h52q93 0 127 67z" />
    <glyph glyph-name="afii10145" unicode="&#x40f;" horiz-adv-x="700" 
d="M416 0v-120h-132v120h-209v694h132v-571h286v571h132v-694h-209z" />
    <glyph glyph-name="afii10017" unicode="&#x410;" 
d="M470 139h-277l-47 -139h-140l242 694h167l242 -694h-140zM428 262l-97 285l-97 -285h194z" />
    <glyph glyph-name="afii10018" unicode="&#x411;" horiz-adv-x="651" 
d="M545 574h-349v-153h206q98 0 158 -58t60 -152t-60 -152.5t-158 -58.5h-338v694h481v-120zM485 211q0 89 -101 89h-188v-179h188q101 0 101 90z" />
    <glyph glyph-name="afii10019" unicode="&#x412;" horiz-adv-x="651" 
d="M620 204q0 -93 -59 -148.5t-159 -55.5h-338v694h320q102 0 155.5 -49.5t53.5 -138.5q0 -87 -68 -136q95 -50 95 -166zM384 574h-188v-153h188q34 0 57.5 21.5t23.5 55.5q0 35 -22 55.5t-59 20.5zM485 209q0 44 -27 67.5t-77 23.5h-185v-179h188q44 0 72.5 20.5t28.5 67.5
z" />
    <glyph glyph-name="afii10020" unicode="&#x413;" horiz-adv-x="564" 
d="M64 0v694h471v-123h-339v-571h-132z" />
    <glyph glyph-name="afii10021" unicode="&#x414;" horiz-adv-x="762" 
d="M79 123l163 571h283l159 -571h52v-243h-132v120h-446v-120h-132v243h53zM544 123l-124 448h-75l-127 -448h326z" />
    <glyph glyph-name="afii10022" unicode="&#x415;" horiz-adv-x="608" 
d="M578 123v-123h-514v694h507v-123h-375v-148h320v-123h-320v-177h382z" />
    <glyph glyph-name="afii10024" unicode="&#x416;" horiz-adv-x="914" 
d="M262 369l-251 325h163l196 -264h20v264h132v-264h21l215 264h151l-258 -324l264 -370h-154l-217 307h-22v-307h-132v307h-23l-211 -307h-157z" />
    <glyph glyph-name="afii10025" unicode="&#x417;" horiz-adv-x="585" 
d="M554 207q0 -92 -67.5 -155.5t-193.5 -63.5q-125 0 -199 68t-76 170h135q2 -52 39.5 -83t99.5 -31q58 0 92.5 27t34.5 70q0 91 -113 91h-64v121h47q110 0 110 83q0 39 -27.5 61t-79.5 22q-108 0 -122 -102h-133q6 98 72.5 162t182.5 64q113 0 174 -59t61 -148t-75 -136
q51 -23 76.5 -66t25.5 -95z" />
    <glyph glyph-name="afii10026" unicode="&#x418;" horiz-adv-x="702" 
d="M64 694h133v-510l282 510h159v-694h-132v510l-283 -510h-159v694z" />
    <glyph glyph-name="afii10027" unicode="&#x419;" horiz-adv-x="702" 
d="M535 907q-6 -70 -54 -115t-121 -45t-121 45t-54 115h94q6 -28 27 -46t54 -18t54 18t27 46h94zM64 694h133v-510l282 510h159v-694h-132v510l-283 -510h-159v694z" />
    <glyph glyph-name="afii10028" unicode="&#x41a;" horiz-adv-x="648" 
d="M265 308l-68 -71v-237h-133v694h133v-280l261 280h182l-282 -290l294 -404h-172z" />
    <glyph glyph-name="afii10029" unicode="&#x41b;" horiz-adv-x="689" 
d="M298 571l-150 -571h-140l183 694h309l181 -694h-140l-148 571h-95z" />
    <glyph glyph-name="afii10030" unicode="&#x41c;" horiz-adv-x="811" 
d="M747 694v-694h-130v509l-141 -509h-141l-141 509v-509h-130v694h196l145 -520l145 520h197z" />
    <glyph glyph-name="afii10031" unicode="&#x41d;" horiz-adv-x="690" 
d="M625 694v-694h-132v293h-296v-293h-133v694h133v-278h296v278h132z" />
    <glyph glyph-name="afii10032" unicode="&#x41e;" horiz-adv-x="745" 
d="M373 711q146 0 242.5 -104.5t96.5 -256.5q0 -153 -96.5 -257.5t-242.5 -104.5t-243 104.5t-97 257.5q0 152 97 256.5t243 104.5zM373 113q85 0 145.5 69.5t60.5 167.5q0 97 -60.5 166.5t-145.5 69.5q-86 0 -146.5 -69.5t-60.5 -166.5q0 -98 60.5 -167.5t146.5 -69.5z" />
    <glyph glyph-name="afii10033" unicode="&#x41f;" horiz-adv-x="690" 
d="M615 694v-694h-132v571h-287v-571h-132v694h551z" />
    <glyph glyph-name="afii10034" unicode="&#x420;" horiz-adv-x="610" 
d="M585 470q0 -98 -62 -160t-164 -62h-163v-248h-132v694h292q108 0 168.5 -60.5t60.5 -163.5zM355 571h-159v-202h159q98 0 98 101t-98 101z" />
    <glyph glyph-name="afii10035" unicode="&#x421;" horiz-adv-x="708" 
d="M684 220q-33 -107 -117 -169.5t-198 -62.5q-142 0 -239 105t-97 257t97 257t239 105q117 0 200 -62t116 -169h-143q-24 49 -69.5 79.5t-103.5 30.5q-85 0 -144.5 -71t-59.5 -170q0 -100 59.5 -171t144.5 -71q57 0 103 31t70 81h142z" />
    <glyph glyph-name="afii10036" unicode="&#x422;" horiz-adv-x="536" 
d="M520 571h-186v-571h-132v571h-186v123h504v-123z" />
    <glyph glyph-name="afii10037" unicode="&#x423;" horiz-adv-x="627" 
d="M258 190l-254 504h147l171 -357l154 357h147l-254 -542q-35 -75 -90.5 -113.5t-146.5 -38.5h-53v123h52q93 0 127 67z" />
    <glyph glyph-name="afii10038" unicode="&#x424;" horiz-adv-x="780" 
d="M456 630q127 -5 209 -86t82 -194q0 -114 -82 -195t-209 -86v-69h-132v69q-127 5 -209 86t-82 195q0 113 82 194t209 86v64h132v-64zM456 192q74 4 116.5 47t42.5 111q0 66 -42.5 109.5t-116.5 47.5v-315zM324 507q-74 -4 -116.5 -47.5t-42.5 -109.5q0 -68 42.5 -111
t116.5 -47v315z" />
    <glyph glyph-name="afii10039" unicode="&#x425;" horiz-adv-x="609" 
d="M452 0l-147 243l-146 -243h-157l224 355l-214 339h156l137 -227l137 227h157l-214 -339l223 -355h-156z" />
    <glyph glyph-name="afii10040" unicode="&#x426;" horiz-adv-x="720" 
d="M562 0h-487v694h132v-571h286v571h132v-571h69v-243h-132v120z" />
    <glyph glyph-name="afii10041" unicode="&#x427;" horiz-adv-x="670" 
d="M463 217h-138q-127 0 -196.5 72.5t-69.5 201.5v203h132v-207q0 -147 134 -147h138v354h132v-694h-132v217z" />
    <glyph glyph-name="afii10042" unicode="&#x428;" horiz-adv-x="930" 
d="M399 123v571h132v-571h192v571h132v-694h-780v694h132v-571h192z" />
    <glyph glyph-name="afii10043" unicode="&#x429;" horiz-adv-x="950" 
d="M399 123v571h132v-571h192v571h132v-571h69v-243h-132v120h-717v694h132v-571h192z" />
    <glyph glyph-name="afii10044" unicode="&#x42a;" horiz-adv-x="773" 
d="M196 571h-180v123h312v-273h192q98 0 158 -58t60 -152t-60 -152.5t-158 -58.5h-324v571zM603 211q0 89 -101 89h-174v-179h174q101 0 101 90z" />
    <glyph glyph-name="afii10045" unicode="&#x42b;" horiz-adv-x="825" 
d="M629 0v694h132v-694h-132zM196 694v-273h150q98 0 158 -58t60 -152t-60 -152.5t-158 -58.5h-282v694h132zM429 211q0 89 -101 89h-132v-179h132q101 0 101 90z" />
    <glyph glyph-name="afii10046" unicode="&#x42c;" horiz-adv-x="637" 
d="M196 694v-273h198q98 0 158 -58t60 -152t-60 -152.5t-158 -58.5h-330v694h132zM477 211q0 89 -101 89h-180v-179h180q101 0 101 90z" />
    <glyph glyph-name="afii10047" unicode="&#x42d;" horiz-adv-x="708" 
d="M539 408q-14 89 -66 136t-128 47q-60 0 -107.5 -30.5t-71.5 -79.5h-143q32 107 117.5 169t204.5 62q144 0 237 -97t93 -265q0 -166 -93 -264t-237 -98q-116 0 -202 62.5t-119 169.5h142q24 -49 72 -80.5t107 -31.5q74 0 126 45.5t67 131.5h-269v123h270z" />
    <glyph glyph-name="afii10048" unicode="&#x42e;" horiz-adv-x="974" 
d="M293 293h-96v-293h-133v694h133v-278h98q19 132 108.5 213.5t212.5 81.5q137 0 231 -101t94 -260t-94 -260.5t-231 -101.5q-125 0 -215 84t-108 221zM616 113q86 0 139 66.5t53 170.5q0 103 -53 169.5t-139 66.5q-87 0 -140 -66.5t-53 -169.5q0 -104 53 -170.5t140 -66.5
z" />
    <glyph glyph-name="afii10049" unicode="&#x42f;" 
d="M62 84v97q0 104 83 148q-97 45 -97 158q0 97 64 152t174 55h317v-694h-132v268h-180q-97 0 -97 -86v-106q0 -43 -14 -76h-134q16 40 16 84zM471 387v184h-185q-106 0 -106 -91q0 -93 103 -93h188z" />
    <glyph glyph-name="afii10065" unicode="&#x430;" horiz-adv-x="582" 
d="M411 0q-8 18 -13 48q-55 -58 -158 -58q-88 0 -148.5 43.5t-60.5 123.5t56 113.5t155 42.5q75 7 111 19t36 41q0 21 -25.5 35t-68.5 14q-39 0 -72 -17t-41 -48h-132q10 75 76 123t166 48q59 0 103 -15t66.5 -35t36 -47t16.5 -44.5t3 -34.5v-268q0 -41 15 -84h-121z
M394 200v48q-36 -23 -125 -33q-53 -6 -79 -19t-26 -40q0 -22 24 -35.5t63 -13.5q64 0 103.5 23t39.5 70z" />
    <glyph glyph-name="afii10066" unicode="&#x431;" horiz-adv-x="606" 
d="M47 265v229q0 118 71 184t184 66h104q58 0 92 17v-118q-34 -16 -84 -16h-108q-62 0 -94 -33.5t-32 -92.5v-35q57 60 150 60q102 0 174 -79t72 -190q0 -113 -74.5 -191t-189.5 -78q-116 0 -190.5 79t-74.5 198zM444 256q0 63 -38.5 105.5t-93.5 42.5q-56 0 -94 -40.5
t-38 -107.5q0 -63 38 -104t94 -41q55 0 93.5 42t38.5 103z" />
    <glyph glyph-name="afii10067" unicode="&#x432;" horiz-adv-x="546" 
d="M510 147q0 -71 -51.5 -109t-123.5 -38h-275v515h274q64 0 109.5 -37.5t45.5 -101.5q0 -66 -48 -102q69 -38 69 -127zM192 402v-78h134q19 0 29 12t10 27q0 16 -10 27.5t-30 11.5h-133zM379 166q0 22 -13.5 37t-43.5 15h-130v-104h131q56 0 56 52z" />
    <glyph glyph-name="afii10068" unicode="&#x433;" horiz-adv-x="462" 
d="M192 398v-398h-132v515h368v-117h-236z" />
    <glyph glyph-name="afii10069" unicode="&#x434;" horiz-adv-x="620" 
d="M66 117l114 398h263l111 -398h45v-218h-130v101h-318v-101h-130v218h45zM419 117l-77 281h-63l-78 -281h218z" />
    <glyph glyph-name="afii10070" unicode="&#x435;" horiz-adv-x="585" 
d="M553 206h-389q13 -47 47.5 -74.5t81.5 -27.5q77 0 109 60h141q-23 -80 -89 -128t-160 -48q-109 0 -186.5 78.5t-77.5 190.5t77.5 191.5t186.5 79.5q120 0 196.5 -87.5t62.5 -234.5zM166 314h256q-12 45 -47 71.5t-82 26.5q-45 0 -79 -26.5t-48 -71.5z" />
    <glyph glyph-name="afii10072" unicode="&#x436;" horiz-adv-x="807" 
d="M191 271l-172 244h158l127 -187h32v187h132v-187h38l123 187h155l-170 -243l188 -272h-156l-143 211h-35v-211h-132v211h-36l-142 -211h-153z" />
    <glyph glyph-name="afii10073" unicode="&#x437;" horiz-adv-x="521" 
d="M156 171q14 -69 104 -69q49 0 71.5 17.5t22.5 44.5q0 54 -79 54h-51v106h49q67 0 67 42q0 22 -20 35.5t-54 13.5q-64 0 -83 -56h-136q9 72 67.5 120.5t149.5 48.5t145.5 -44t54.5 -109t-48 -101q69 -38 69 -127q0 -75 -61.5 -117t-161.5 -42q-108 0 -171.5 53t-74.5 130
h140z" />
    <glyph glyph-name="afii10074" unicode="&#x438;" horiz-adv-x="587" 
d="M60 0v515h130v-328l199 328h138v-515h-130v328l-199 -328h-138z" />
    <glyph glyph-name="afii10075" unicode="&#x439;" horiz-adv-x="587" 
d="M468 742q-6 -70 -54 -115t-121 -45t-121 45t-54 115h94q6 -28 27 -46t54 -18t54 18t27 46h94zM60 0v515h130v-328l199 328h138v-515h-130v328l-199 -328h-138z" />
    <glyph glyph-name="afii10076" unicode="&#x43a;" horiz-adv-x="558" 
d="M192 142v-142h-132v515h132v-208l186 208h165l-191 -203l202 -312h-160l-134 214z" />
    <glyph glyph-name="afii10077" unicode="&#x43b;" horiz-adv-x="578" 
d="M257 398l-111 -398h-136l145 515h272l141 -515h-136l-108 398h-67z" />
    <glyph glyph-name="afii10078" unicode="&#x43c;" horiz-adv-x="691" 
d="M188 301v-301h-128v515h164l121 -368l121 368h165v-515h-128v307l-98 -307h-121z" />
    <glyph glyph-name="afii10079" unicode="&#x43d;" horiz-adv-x="587" 
d="M192 219v-219h-132v515h132v-179h203v179h132v-515h-132v219h-203z" />
    <glyph glyph-name="afii10080" unicode="&#x43e;" horiz-adv-x="579" 
d="M289 528q108 0 184 -78t76 -193q0 -114 -76 -191.5t-184 -77.5t-183.5 77t-75.5 192t75.5 193t183.5 78zM289 109q53 0 90 41.5t37 105.5q0 66 -37 108.5t-90 42.5t-90 -42.5t-37 -108.5q0 -64 37 -105.5t90 -41.5z" />
    <glyph glyph-name="afii10081" unicode="&#x43f;" horiz-adv-x="571" 
d="M192 398v-398h-132v515h451v-515h-132v398h-187z" />
    <glyph glyph-name="afii10082" unicode="&#x440;" horiz-adv-x="619" 
d="M589 259q0 -114 -71.5 -192t-173.5 -78q-88 0 -151 61v-279h-133v744h127v-54q64 66 157 66q102 0 173.5 -77.5t71.5 -190.5zM457 259q0 62 -38.5 103.5t-93.5 41.5t-93.5 -42.5t-38.5 -102.5q0 -61 38.5 -104t93.5 -43t93.5 42t38.5 105z" />
    <glyph glyph-name="afii10083" unicode="&#x441;" horiz-adv-x="571" 
d="M545 174q-22 -87 -88.5 -136.5t-160.5 -49.5q-115 0 -190.5 78t-75.5 191t75.5 192t190.5 79q93 0 159.5 -49.5t88.5 -136.5h-141q-14 28 -43 46.5t-64 18.5q-55 0 -93.5 -44.5t-38.5 -106.5q0 -61 38.5 -104.5t93.5 -43.5q36 0 65.5 19t42.5 47h141z" />
    <glyph glyph-name="afii10084" unicode="&#x442;" horiz-adv-x="498" 
d="M183 398h-157v117h446v-117h-157v-398h-132v398z" />
    <glyph glyph-name="afii10085" unicode="&#x443;" horiz-adv-x="532" 
d="M531 515l-228 -609q-35 -93 -90.5 -122t-146.5 -23v120q50 -3 76.5 12t42.5 59l15 39l-199 524h140l126 -372l123 372h141z" />
    <glyph glyph-name="afii10086" unicode="&#x444;" horiz-adv-x="617" 
d="M374 521q97 -21 159.5 -95t62.5 -170q0 -94 -62.5 -167t-159.5 -94v-224h-132v224q-96 21 -158.5 94t-62.5 167q0 96 62.5 170t158.5 95v223h132v-223zM374 397v-280q42 17 65.5 54t23.5 85q0 49 -23.5 86.5t-65.5 54.5zM242 117v280q-42 -17 -65.5 -54.5t-23.5 -86.5
q0 -48 23.5 -85t65.5 -54z" />
    <glyph glyph-name="afii10087" unicode="&#x445;" horiz-adv-x="513" 
d="M513 0h-149l-107 175l-108 -175h-149l180 266l-169 249h150l96 -157l95 157h150l-169 -249z" />
    <glyph glyph-name="afii10088" unicode="&#x446;" horiz-adv-x="597" 
d="M446 0h-386v515h132v-398h182v398h132v-398h70v-218h-130v101z" />
    <glyph glyph-name="afii10089" unicode="&#x447;" horiz-adv-x="545" 
d="M353 143h-83q-99 0 -160 59t-61 162v151h132v-147q0 -108 96 -108h76v255h132v-515h-132v143z" />
    <glyph glyph-name="afii10090" unicode="&#x448;" horiz-adv-x="740" 
d="M304 117v398h132v-398h112v398h132v-515h-620v515h132v-398h112z" />
    <glyph glyph-name="afii10091" unicode="&#x449;" horiz-adv-x="770" 
d="M619 0h-559v515h132v-398h112v398h132v-398h111v398h132v-398h70v-218h-130v101z" />
    <glyph glyph-name="afii10092" unicode="&#x44a;" horiz-adv-x="612" 
d="M153 398h-127v117h259v-187h126q74 0 124.5 -43t50.5 -124q0 -82 -50.5 -121.5t-124.5 -39.5h-258v398zM455 166q0 22 -13.5 37t-43.5 15h-113v-104h114q56 0 56 52z" />
    <glyph glyph-name="afii10093" unicode="&#x44b;" horiz-adv-x="700" 
d="M508 0v515h132v-515h-132zM457 161q0 -82 -50.5 -121.5t-124.5 -39.5h-222v515h132v-187h90q74 0 124.5 -43t50.5 -124zM326 166q0 22 -13.5 37t-43.5 15h-77v-104h78q56 0 56 52z" />
    <glyph glyph-name="afii10094" unicode="&#x44c;" horiz-adv-x="536" 
d="M510 161q0 -82 -50.5 -121.5t-124.5 -39.5h-275v515h132v-187h143q74 0 124.5 -43t50.5 -124zM379 166q0 22 -13.5 37t-43.5 15h-130v-104h131q56 0 56 52z" />
    <glyph glyph-name="afii10095" unicode="&#x44d;" horiz-adv-x="571" 
d="M401 312q-12 48 -44.5 71.5t-75.5 23.5q-77 0 -113 -65h-141q22 86 91 136t163 50q113 0 186.5 -77t73.5 -194q0 -118 -73.5 -193.5t-186.5 -75.5q-95 0 -164 49.5t-91 136.5h141q33 -66 114 -66q44 0 76 22.5t44 68.5h-164v113h164z" />
    <glyph glyph-name="afii10096" unicode="&#x44e;" horiz-adv-x="780" 
d="M192 207v-207h-132v515h132v-191h76q19 91 84 147.5t153 56.5q105 0 175 -77.5t70 -193.5q0 -115 -70 -192t-175 -77q-92 0 -158.5 61t-81.5 158h-73zM505 109q51 0 81.5 40.5t30.5 106.5q0 67 -30.5 109t-81.5 42t-81.5 -42t-30.5 -109q0 -66 30.5 -106.5t81.5 -40.5z
" />
    <glyph glyph-name="afii10097" unicode="&#x44f;" horiz-adv-x="552" 
d="M123 238q-68 42 -68 121q0 82 50 119t125 37h262v-515h-132v183h-97q-38 0 -57.5 -16.5t-19.5 -54.5v-50q0 -39 -11 -62h-134q13 29 13 70v55q0 79 69 113zM186 346q0 -22 14 -37.5t43 -15.5h117v108h-118q-56 0 -56 -55z" />
    <glyph glyph-name="afii10071" unicode="&#x451;" horiz-adv-x="585" 
d="M326 703h122v-111h-122v111zM138 703h122v-111h-122v111zM553 206h-389q13 -47 47.5 -74.5t81.5 -27.5q77 0 109 60h141q-23 -80 -89 -128t-160 -48q-109 0 -186.5 78.5t-77.5 190.5t77.5 191.5t186.5 79.5q120 0 196.5 -87.5t62.5 -234.5zM166 314h256q-12 45 -47 71.5
t-82 26.5q-45 0 -79 -26.5t-48 -71.5z" />
    <glyph glyph-name="afii10099" unicode="&#x452;" horiz-adv-x="577" 
d="M60 584h-60v113h60v47h133v-47h163v-113h-163v-96q53 40 118 40q94 0 152 -62.5t58 -164.5v-336q0 -101 -55.5 -147.5t-150.5 -46.5h-35v117h35q74 0 74 84v329q0 14 -3.5 28.5t-12 31.5t-29.5 27.5t-51 10.5q-44 0 -72 -27.5t-28 -70.5v-301h-133v584z" />
    <glyph glyph-name="afii10100" unicode="&#x453;" horiz-adv-x="462" 
d="M440 723l-144 -141h-97l93 141h148zM192 398v-398h-132v515h368v-117h-236z" />
    <glyph glyph-name="afii10101" unicode="&#x454;" horiz-adv-x="571" 
d="M171 199q14 -46 49 -68.5t79 -22.5q73 0 107 66h139q-23 -88 -87.5 -137t-158.5 -49q-114 0 -191.5 76t-77.5 193q0 116 77.5 193.5t191.5 77.5q93 0 157.5 -49.5t87.5 -136.5h-139q-36 65 -106 65q-44 0 -79 -24t-49 -71h163v-113h-163z" />
    <glyph glyph-name="afii10102" unicode="&#x455;" horiz-adv-x="526" 
d="M495 162q0 -76 -63.5 -125t-162.5 -49t-165.5 48.5t-78.5 131.5h134q12 -30 44 -45t66 -15q41 0 67 12t26 34t-21 33.5t-87 21.5q-34 5 -58.5 10t-56.5 17t-51.5 27t-34 41t-14.5 59q0 67 57.5 116t162.5 49q88 0 149 -44t74 -117h-137q-14 43 -86 43q-42 0 -64 -12.5
t-22 -28.5q0 -19 24 -28.5t78 -17.5q54 -9 89 -18.5t67.5 -27.5t48 -46t15.5 -69z" />
    <glyph glyph-name="afii10103" unicode="&#x456;" horiz-adv-x="258" 
d="M195 694v-123h-132v123h132zM195 515v-515h-132v515h132z" />
    <glyph glyph-name="afii10104" unicode="&#x457;" horiz-adv-x="259" 
d="M165 703h122v-111h-122v111zM-23 703h122v-111h-122v111zM195 515v-515h-132v515h132z" />
    <glyph glyph-name="afii10105" unicode="&#x458;" horiz-adv-x="239" 
d="M187 694v-123h-133v123h133zM187 515v-578q0 -98 -55.5 -138t-156.5 -26v117q41 -4 60 10t19 52v563h133z" />
    <glyph glyph-name="afii10106" unicode="&#x459;" horiz-adv-x="852" 
d="M511 328h140q74 0 124.5 -43t50.5 -124q0 -82 -50.5 -121.5t-124.5 -39.5h-272v398h-122l-111 -398h-136l145 515h356v-187zM695 166q0 22 -13.5 37t-43.5 15h-127v-104h128q56 0 56 52z" />
    <glyph glyph-name="afii10107" unicode="&#x45a;" horiz-adv-x="857" 
d="M192 218v-218h-132v515h132v-187h188v187h132v-187h140q74 0 124.5 -43t50.5 -124q0 -82 -50.5 -121.5t-124.5 -39.5h-272v218h-188zM696 166q0 22 -13.5 37t-43.5 15h-127v-104h128q56 0 56 52z" />
    <glyph glyph-name="afii10108" unicode="&#x45b;" horiz-adv-x="577" 
d="M60 584h-60v113h60v47h133v-47h163v-113h-163v-96q53 40 118 40q94 0 152 -62.5t58 -164.5v-301h-132v301q0 14 -3.5 28.5t-12 31.5t-29.5 27.5t-51 10.5q-44 0 -72 -27.5t-28 -70.5v-301h-133v584z" />
    <glyph glyph-name="afii10109" unicode="&#x45c;" horiz-adv-x="558" 
d="M473 723l-144 -141h-97l93 141h148zM192 142v-142h-132v515h132v-208l186 208h165l-191 -203l202 -312h-160l-134 214z" />
    <glyph glyph-name="afii10110" unicode="&#x45e;" horiz-adv-x="532" 
d="M440 742q-6 -70 -54 -115t-121 -45t-121 45t-54 115h94q6 -28 27 -46t54 -18t54 18t27 46h94zM531 515l-228 -609q-35 -93 -90.5 -122t-146.5 -23v120q50 -3 76.5 12t42.5 59l15 39l-199 524h140l126 -372l123 372h141z" />
    <glyph glyph-name="afii10193" unicode="&#x45f;" horiz-adv-x="566" 
d="M348 0v-101h-130v101h-158v515h132v-398h182v398h132v-515h-158z" />
    <glyph glyph-name="afii10050" unicode="&#x490;" horiz-adv-x="568" 
d="M408 694v128h132v-251h-344v-571h-132v694h344z" />
    <glyph glyph-name="afii10098" unicode="&#x491;" horiz-adv-x="466" 
d="M312 515v109h127v-226h-247v-398h-132v515h252z" />
    <glyph glyph-name="endash" unicode="&#x2013;" horiz-adv-x="606" 
d="M31 216v123h544v-123h-544z" />
    <glyph glyph-name="emdash" unicode="&#x2014;" horiz-adv-x="951" 
d="M31 216v123h889v-123h-889z" />
    <glyph glyph-name="quoteleft" unicode="&#x2018;" horiz-adv-x="203" 
d="M169 547v-126h-135v135q0 62 33.5 97.5t88.5 41.5v-56q-58 -13 -58 -80v-12h71z" />
    <glyph glyph-name="quoteright" unicode="&#x2019;" horiz-adv-x="203" 
d="M169 694v-135q0 -61 -33.5 -97t-88.5 -41v56q58 12 58 80v11h-71v126h135z" />
    <glyph glyph-name="quotesinglbase" unicode="&#x201a;" horiz-adv-x="200" 
d="M169 127v-135q0 -61 -33.5 -97t-88.5 -41v56q58 12 58 80v11h-71v126h135z" />
    <glyph glyph-name="quotedblleft" unicode="&#x201c;" horiz-adv-x="426" 
d="M392 547v-126h-135v135q0 62 33.5 97.5t88.5 41.5v-56q-58 -13 -58 -80v-12h71zM98 547h71v-126h-135v135q0 62 33.5 97.5t88.5 41.5v-56q-58 -13 -58 -80v-12z" />
    <glyph glyph-name="quotedblright" unicode="&#x201d;" horiz-adv-x="426" 
d="M392 694v-135q0 -61 -33.5 -97t-88.5 -41v56q58 12 58 80v11h-71v126h135zM34 694h135v-135q0 -61 -33.5 -97t-88.5 -41v56q58 12 58 80v11h-71v126z" />
    <glyph glyph-name="quotedblbase" unicode="&#x201e;" horiz-adv-x="423" 
d="M392 126v-135q0 -61 -33.5 -97t-88.5 -41v56q58 12 58 80v11h-71v126h135zM34 126h135v-135q0 -61 -33.5 -97t-88.5 -41v56q58 12 58 80v11h-71v126z" />
    <glyph glyph-name="dagger" unicode="&#x2020;" horiz-adv-x="389" 
d="M351 470h-104v-271h-106v271h-103v99h103v125h106v-125h104v-99z" />
    <glyph glyph-name="daggerdbl" unicode="&#x2021;" horiz-adv-x="389" 
d="M247 470v-132h104v-99h-104v-125h-106v125h-103v99h103v132h-103v99h103v125h106v-125h104v-99h-104z" />
    <glyph glyph-name="bullet" unicode="&#x2022;" horiz-adv-x="313" 
d="M157 258q-45 0 -76 31t-31 76q0 44 31 75t76 31q43 0 74.5 -31.5t31.5 -74.5q0 -45 -31 -76t-75 -31z" />
    <glyph glyph-name="ellipsis" unicode="&#x2026;" horiz-adv-x="864" 
d="M818 141v-141h-142v141h142zM503 141v-141h-142v141h142zM188 141v-141h-142v141h142z" />
    <glyph glyph-name="perthousand" unicode="&#x2030;" horiz-adv-x="1191" 
d="M197 694q74 0 124.5 -51t50.5 -124t-50.5 -123.5t-124.5 -50.5t-124.5 51t-50.5 123q0 73 50.5 124t124.5 51zM155 0l381 694h107l-381 -694h-107zM995 0q-74 0 -124.5 51t-50.5 124t50.5 124t124.5 51t124.5 -51t50.5 -124t-50.5 -124t-124.5 -51zM601 0
q-74 0 -124.5 51t-50.5 124t50.5 124t124.5 51t124.5 -51t50.5 -124t-50.5 -124t-124.5 -51zM197 439q31 0 53.5 23.5t22.5 56.5t-22.5 56.5t-53.5 23.5t-53 -23.5t-22 -56.5t22 -56.5t53 -23.5zM995 255q-31 0 -53.5 -23.5t-22.5 -56.5t22.5 -56.5t53.5 -23.5t53.5 23.5
t22.5 56.5t-22.5 56.5t-53.5 23.5zM601 255q-31 0 -53.5 -23.5t-22.5 -56.5t22.5 -56.5t53.5 -23.5t53.5 23.5t22.5 56.5t-22.5 56.5t-53.5 23.5z" />
    <glyph glyph-name="guilsinglleft" unicode="&#x2039;" horiz-adv-x="210" 
d="M23 349l158 136v-105l-100 -80l100 -82v-105l-158 137v99z" />
    <glyph glyph-name="guilsinglright" unicode="&#x203a;" horiz-adv-x="210" 
d="M188 349v-99l-159 -137v105l100 82l-100 80v105z" />
    <glyph glyph-name="fraction" unicode="&#x2044;" horiz-adv-x="591" 
d="M541 694l-407 -706h-84l408 706h83z" />
    <glyph glyph-name="Euro" unicode="&#x20ac;" horiz-adv-x="656" 
d="M646 171q-34 -81 -101 -126t-161 -45q-99 0 -176 58.5t-108 153.5h-75v75h59q-2 22 -2 35q0 4 0.5 12t0.5 13h-58v74h72q30 98 111.5 159.5t186.5 61.5q145 0 232 -99l-56 -90q-58 85 -172 85q-60 0 -108 -31.5t-72 -85.5h333l-46 -74h-307q-1 -8 -1 -25q0 -13 2 -35h269
l-46 -75h-201q24 -50 66.5 -79t95.5 -29q90 0 138 67h124z" />
    <glyph glyph-name="afii61352" unicode="&#x2116;" horiz-adv-x="1201" 
d="M946 709q94 0 159.5 -67.5t65.5 -163.5t-65.5 -163t-159.5 -67t-160.5 67.5t-66.5 162.5t66.5 163t160.5 68zM638 694v-694h-159l-283 494v-494h-132v694h159l282 -494v494h133zM1140 1h-390v117h390v-117zM946 361q44 0 71.5 32.5t27.5 84.5q0 53 -28 86.5t-71 33.5
q-44 0 -72.5 -33.5t-28.5 -86.5q0 -52 28 -84.5t73 -32.5z" />
    <glyph glyph-name="trademark" unicode="&#x2122;" horiz-adv-x="920" 
d="M870 694v-436h-95v264l-87 -264h-104l-86 263v-263h-95v436h127l106 -317l107 317h127zM35 694h317v-93h-109v-343h-99v343h-109v93z" />
    <glyph glyph-name="commaaccent" unicode="&#xf004;" horiz-adv-x="308" 
d="M96 -62q29 17 73 17t71.5 -24t27.5 -61q0 -42 -33.5 -66.5t-80.5 -24.5q-64 0 -114 40l17 36q41 -24 81 -24q50 0 50 37q0 17 -13 27.5t-35 10.5q-23 0 -44 -9v41z" />
    <glyph glyph-name="commaaccent" unicode="&#xf6c3;" horiz-adv-x="308" 
d="M96 -62q29 17 73 17t71.5 -24t27.5 -61q0 -42 -33.5 -66.5t-80.5 -24.5q-64 0 -114 40l17 36q41 -24 81 -24q50 0 50 37q0 17 -13 27.5t-35 10.5q-23 0 -44 -9v41z" />
    <glyph glyph-name="apple" unicode="&#xf8ff;" horiz-adv-x="904" 
d="M863 347q0 -101 -51 -181t-128.5 -121t-163.5 -44l-12 -1v695l12 -1q86 -3 163.5 -44t128.5 -121.5t51 -181.5zM387 694h92v-125h-92q-96 0 -155 -64.5t-59 -157.5t59 -157.5t155 -64.5h92v-125h-92q-153 0 -249.5 101.5t-96.5 245.5t96.5 245.5t249.5 101.5zM839 336
h-135q-1 -67 -21 -134q46 -15 93 -46q60 78 63 180zM683 492q20 -65 21 -133h135q-3 100 -63 180q-45 -30 -93 -47zM532 230q70 -3 128 -21q20 62 21 127h-149v-106zM532 359h149q-1 64 -21 126q-61 -17 -128 -20v-106zM532 488q70 5 121 20q-43 112 -121 156v-176zM532 31
q77 42 121 156q-53 16 -121 19v-175zM573 664q65 -52 102 -149q44 16 86 42q-76 85 -188 107zM761 138q-42 26 -86 42q-37 -97 -102 -149q112 22 188 107z" />
    <glyph glyph-name="CR" horiz-adv-x="308" 
 />
    </font>
</defs>
</svg>
